<?xml version="1.0" encoding="UTF-8" standalone="no"?>
<!DOCTYPE svg PUBLIC "-//W3C//DTD SVG 1.1//EN"
 "http://www.w3.org/Graphics/SVG/1.1/DTD/svg11.dtd">
<!-- Generated by graphviz version 2.36.0 (20140111.2315)
 -->
<!-- Title: 1 Pages: 1 -->
<svg width="334pt" height="218pt"
 viewBox="0.00 0.00 334.38 218.10" xmlns="http://www.w3.org/2000/svg" xmlns:xlink="http://www.w3.org/1999/xlink">
<g id="graph0" class="graph" transform="scale(1 1) rotate(0) translate(4 214.101)">
<title>1</title>
<polygon fill="white" stroke="none" points="-4,4 -4,-214.101 330.381,-214.101 330.381,4 -4,4"/>
<!-- n10 -->
<g id="node1" class="node"><title>n10</title>
<ellipse fill="none" stroke="black" cx="24.0479" cy="-80.0692" rx="24.0958" ry="24.0958"/>
<text text-anchor="middle" x="24.0479" y="-76.3692" font-family="Times,serif" font-size="14.00">n10</text>
</g>
<!-- n9 -->
<g id="node2" class="node"><title>n9</title>
<ellipse fill="none" stroke="black" cx="91.5491" cy="-190.603" rx="19.4965" ry="19.4965"/>
<text text-anchor="middle" x="91.5491" y="-186.903" font-family="Times,serif" font-size="14.00">n9</text>
</g>
<!-- n10&#45;&#45;n9 -->
<g id="edge44" class="edge"><title>n10&#45;&#45;n9</title>
<path fill="none" stroke="black" d="M36.5861,-100.601C49.4729,-121.703 69.2983,-154.167 81.2851,-173.796"/>
</g>
<!-- n8 -->
<g id="node3" class="node"><title>n8</title>
<ellipse fill="none" stroke="black" cx="155.594" cy="-60.7032" rx="19.4965" ry="19.4965"/>
<text text-anchor="middle" x="155.594" y="-57.0032" font-family="Times,serif" font-size="14.00">n8</text>
</g>
<!-- n10&#45;&#45;n8 -->
<g id="edge43" class="edge"><title>n10&#45;&#45;n8</title>
<path fill="none" stroke="black" d="M47.87,-76.5622C73.1914,-72.8344 112.75,-67.0107 136.227,-63.5544"/>
</g>
<!-- n4 -->
<g id="node7" class="node"><title>n4</title>
<ellipse fill="none" stroke="black" cx="149.375" cy="-113.672" rx="19.4965" ry="19.4965"/>
<text text-anchor="middle" x="149.375" y="-109.972" font-family="Times,serif" font-size="14.00">n4</text>
</g>
<!-- n10&#45;&#45;n4 -->
<g id="edge42" class="edge"><title>n10&#45;&#45;n4</title>
<path fill="none" stroke="black" d="M47.3272,-86.311C71.2537,-92.7262 108.063,-102.596 130.318,-108.563"/>
</g>
<!-- n9&#45;&#45;n8 -->
<g id="edge41" class="edge"><title>n9&#45;&#45;n8</title>
<path fill="none" stroke="black" d="M100.187,-173.084C112.41,-148.292 134.629,-103.226 146.889,-78.3594"/>
</g>
<!-- n7 -->
<g id="node4" class="node"><title>n7</title>
<ellipse fill="none" stroke="black" cx="193.954" cy="-180.733" rx="19.4965" ry="19.4965"/>
<text text-anchor="middle" x="193.954" y="-177.033" font-family="Times,serif" font-size="14.00">n7</text>
</g>
<!-- n9&#45;&#45;n7 -->
<g id="edge40" class="edge"><title>n9&#45;&#45;n7</title>
<path fill="none" stroke="black" d="M111.294,-188.7C129.427,-186.952 156.155,-184.376 174.27,-182.63"/>
</g>
<!-- n6 -->
<g id="node5" class="node"><title>n6</title>
<ellipse fill="none" stroke="black" cx="245.44" cy="-185.189" rx="19.4965" ry="19.4965"/>
<text text-anchor="middle" x="245.44" y="-181.489" font-family="Times,serif" font-size="14.00">n6</text>
</g>
<!-- n9&#45;&#45;n6 -->
<g id="edge39" class="edge"><title>n9&#45;&#45;n6</title>
<path fill="none" stroke="black" d="M111.04,-189.917C140.479,-188.881 195.99,-186.929 225.622,-185.886"/>
</g>
<!-- n5 -->
<g id="node6" class="node"><title>n5</title>
<ellipse fill="none" stroke="black" cx="218.212" cy="-114.566" rx="19.4965" ry="19.4965"/>
<text text-anchor="middle" x="218.212" y="-110.866" font-family="Times,serif" font-size="14.00">n5</text>
</g>
<!-- n9&#45;&#45;n5 -->
<g id="edge38" class="edge"><title>n9&#45;&#45;n5</title>
<path fill="none" stroke="black" d="M108.369,-180.506C132.595,-165.963 177.058,-139.271 201.322,-124.705"/>
</g>
<!-- n9&#45;&#45;n4 -->
<g id="edge37" class="edge"><title>n9&#45;&#45;n4</title>
<path fill="none" stroke="black" d="M103.531,-174.663C113.521,-161.372 127.676,-142.54 137.607,-129.329"/>
</g>
<!-- n8&#45;&#45;n7 -->
<g id="edge36" class="edge"><title>n8&#45;&#45;n7</title>
<path fill="none" stroke="black" d="M161.588,-79.4579C168.794,-102.007 180.815,-139.619 188.002,-162.11"/>
</g>
<!-- n8&#45;&#45;n6 -->
<g id="edge35" class="edge"><title>n8&#45;&#45;n6</title>
<path fill="none" stroke="black" d="M167.156,-76.7227C184.408,-100.626 216.697,-145.364 233.923,-169.231"/>
</g>
<!-- n8&#45;&#45;n5 -->
<g id="edge34" class="edge"><title>n8&#45;&#45;n5</title>
<path fill="none" stroke="black" d="M170.434,-73.4679C180.271,-81.9297 193.14,-92.9998 203.044,-101.519"/>
</g>
<!-- n8&#45;&#45;n4 -->
<g id="edge33" class="edge"><title>n8&#45;&#45;n4</title>
<path fill="none" stroke="black" d="M153.314,-80.1262C152.773,-84.7323 152.196,-89.6457 151.655,-94.2517"/>
</g>
<!-- n3 -->
<g id="node8" class="node"><title>n3</title>
<ellipse fill="none" stroke="black" cx="302.67" cy="-144.219" rx="19.4965" ry="19.4965"/>
<text text-anchor="middle" x="302.67" y="-140.519" font-family="Times,serif" font-size="14.00">n3</text>
</g>
<!-- n8&#45;&#45;n3 -->
<g id="edge32" class="edge"><title>n8&#45;&#45;n3</title>
<path fill="none" stroke="black" d="M172.754,-70.447C201.094,-86.5395 257.352,-118.485 285.62,-134.537"/>
</g>
<!-- n2 -->
<g id="node9" class="node"><title>n2</title>
<ellipse fill="none" stroke="black" cx="273.694" cy="-37.3386" rx="19.4965" ry="19.4965"/>
<text text-anchor="middle" x="273.694" y="-33.6386" font-family="Times,serif" font-size="14.00">n2</text>
</g>
<!-- n8&#45;&#45;n2 -->
<g id="edge31" class="edge"><title>n8&#45;&#45;n2</title>
<path fill="none" stroke="black" d="M174.832,-56.8973C196.793,-52.5525 232.507,-45.487 254.465,-41.1429"/>
</g>
<!-- n1 -->
<g id="node10" class="node"><title>n1</title>
<ellipse fill="none" stroke="black" cx="219.459" cy="-19.4983" rx="19.4965" ry="19.4965"/>
<text text-anchor="middle" x="219.459" y="-15.7983" font-family="Times,serif" font-size="14.00">n1</text>
</g>
<!-- n8&#45;&#45;n1 -->
<g id="edge30" class="edge"><title>n8&#45;&#45;n1</title>
<path fill="none" stroke="black" d="M172.041,-50.0919C181.502,-43.9876 193.357,-36.3391 202.846,-30.2168"/>
</g>
<!-- n0 -->
<g id="node11" class="node"><title>n0</title>
<ellipse fill="none" stroke="black" cx="306.883" cy="-84.3352" rx="19.4965" ry="19.4965"/>
<text text-anchor="middle" x="306.883" y="-80.6352" font-family="Times,serif" font-size="14.00">n0</text>
</g>
<!-- n8&#45;&#45;n0 -->
<g id="edge29" class="edge"><title>n8&#45;&#45;n0</title>
<path fill="none" stroke="black" d="M175.063,-63.7443C204.112,-68.2819 258.483,-76.7749 287.489,-81.3058"/>
</g>
<!-- n7&#45;&#45;n6 -->
<g id="edge28" class="edge"><title>n7&#45;&#45;n6</title>
<path fill="none" stroke="black" d="M213.419,-182.418C217.519,-182.773 221.846,-183.147 225.948,-183.502"/>
</g>
<!-- n7&#45;&#45;n5 -->
<g id="edge27" class="edge"><title>n7&#45;&#45;n5</title>
<path fill="none" stroke="black" d="M200.711,-162.302C204.076,-153.125 208.131,-142.062 211.491,-132.898"/>
</g>
<!-- n7&#45;&#45;n4 -->
<g id="edge26" class="edge"><title>n7&#45;&#45;n4</title>
<path fill="none" stroke="black" d="M182.934,-164.156C176.024,-153.762 167.153,-140.417 160.268,-130.058"/>
</g>
<!-- n7&#45;&#45;n3 -->
<g id="edge25" class="edge"><title>n7&#45;&#45;n3</title>
<path fill="none" stroke="black" d="M212.891,-174.373C232.845,-167.671 264.078,-157.181 283.95,-150.506"/>
</g>
<!-- n7&#45;&#45;n2 -->
<g id="edge24" class="edge"><title>n7&#45;&#45;n2</title>
<path fill="none" stroke="black" d="M203.572,-163.436C218.899,-135.875 248.694,-82.2963 264.042,-54.6967"/>
</g>
<!-- n7&#45;&#45;n1 -->
<g id="edge23" class="edge"><title>n7&#45;&#45;n1</title>
<path fill="none" stroke="black" d="M197.03,-161.284C201.946,-130.211 211.514,-69.7235 216.411,-38.765"/>
</g>
<!-- n7&#45;&#45;n0 -->
<g id="edge22" class="edge"><title>n7&#45;&#45;n0</title>
<path fill="none" stroke="black" d="M209.184,-167.732C230.858,-149.231 270.354,-115.517 291.894,-97.1299"/>
</g>
<!-- n6&#45;&#45;n5 -->
<g id="edge21" class="edge"><title>n6&#45;&#45;n5</title>
<path fill="none" stroke="black" d="M238.286,-166.634C234.316,-156.335 229.391,-143.561 225.413,-133.243"/>
</g>
<!-- n6&#45;&#45;n4 -->
<g id="edge20" class="edge"><title>n6&#45;&#45;n4</title>
<path fill="none" stroke="black" d="M229.577,-173.379C211.778,-160.129 183.071,-138.757 165.262,-125.499"/>
</g>
<!-- n6&#45;&#45;n3 -->
<g id="edge19" class="edge"><title>n6&#45;&#45;n3</title>
<path fill="none" stroke="black" d="M261.382,-173.776C269.32,-168.094 278.888,-161.244 286.814,-155.57"/>
</g>
<!-- n6&#45;&#45;n2 -->
<g id="edge18" class="edge"><title>n6&#45;&#45;n2</title>
<path fill="none" stroke="black" d="M249.134,-165.86C254.549,-137.525 264.584,-85.0103 270,-56.6722"/>
</g>
<!-- n6&#45;&#45;n1 -->
<g id="edge17" class="edge"><title>n6&#45;&#45;n1</title>
<path fill="none" stroke="black" d="M242.409,-165.858C237.416,-134.016 227.518,-70.8907 222.511,-38.9624"/>
</g>
<!-- n6&#45;&#45;n0 -->
<g id="edge16" class="edge"><title>n6&#45;&#45;n0</title>
<path fill="none" stroke="black" d="M255.586,-168.535C266.971,-149.848 285.331,-119.711 296.722,-101.014"/>
</g>
<!-- n5&#45;&#45;n4 -->
<g id="edge15" class="edge"><title>n5&#45;&#45;n4</title>
<path fill="none" stroke="black" d="M198.67,-114.312C189.448,-114.193 178.463,-114.05 169.205,-113.93"/>
</g>
<!-- n5&#45;&#45;n3 -->
<g id="edge14" class="edge"><title>n5&#45;&#45;n3</title>
<path fill="none" stroke="black" d="M236.956,-121.147C251.049,-126.095 270.26,-132.84 284.269,-137.758"/>
</g>
<!-- n5&#45;&#45;n2 -->
<g id="edge13" class="edge"><title>n5&#45;&#45;n2</title>
<path fill="none" stroke="black" d="M229.708,-98.5644C239.23,-85.3103 252.695,-66.5682 262.213,-53.3197"/>
</g>
<!-- n5&#45;&#45;n1 -->
<g id="edge12" class="edge"><title>n5&#45;&#45;n1</title>
<path fill="none" stroke="black" d="M218.47,-94.8679C218.684,-78.5519 218.987,-55.4801 219.201,-39.1711"/>
</g>
<!-- n5&#45;&#45;n0 -->
<g id="edge11" class="edge"><title>n5&#45;&#45;n0</title>
<path fill="none" stroke="black" d="M237.017,-108.155C252.166,-102.99 273.349,-95.7681 288.409,-90.6334"/>
</g>
<!-- n4&#45;&#45;n3 -->
<g id="edge10" class="edge"><title>n4&#45;&#45;n3</title>
<path fill="none" stroke="black" d="M168.79,-117.541C198.277,-123.417 254.02,-134.524 283.413,-140.381"/>
</g>
<!-- n4&#45;&#45;n2 -->
<g id="edge9" class="edge"><title>n4&#45;&#45;n2</title>
<path fill="none" stroke="black" d="M166.141,-103.378C189.868,-88.8088 232.998,-62.3267 256.797,-47.714"/>
</g>
<!-- n4&#45;&#45;n1 -->
<g id="edge8" class="edge"><title>n4&#45;&#45;n1</title>
<path fill="none" stroke="black" d="M161.264,-97.697C174.229,-80.2746 194.85,-52.5666 207.746,-35.2377"/>
</g>
<!-- n4&#45;&#45;n0 -->
<g id="edge7" class="edge"><title>n4&#45;&#45;n0</title>
<path fill="none" stroke="black" d="M168.688,-110.075C198.919,-104.444 257.084,-93.6106 287.411,-87.9619"/>
</g>
<!-- n3&#45;&#45;n2 -->
<g id="edge6" class="edge"><title>n3&#45;&#45;n2</title>
<path fill="none" stroke="black" d="M297.49,-125.111C292.216,-105.656 284.088,-75.6755 278.83,-56.2812"/>
</g>
<!-- n3&#45;&#45;n1 -->
<g id="edge5" class="edge"><title>n3&#45;&#45;n1</title>
<path fill="none" stroke="black" d="M291.792,-127.914C275.844,-104.011 246.289,-59.7122 230.34,-35.8073"/>
</g>
<!-- n3&#45;&#45;n0 -->
<g id="edge4" class="edge"><title>n3&#45;&#45;n0</title>
<path fill="none" stroke="black" d="M304.05,-124.611C304.51,-118.061 305.024,-110.76 305.486,-104.192"/>
</g>
<!-- n2&#45;&#45;n1 -->
<g id="edge3" class="edge"><title>n2&#45;&#45;n1</title>
<path fill="none" stroke="black" d="M255.03,-31.199C249.637,-29.425 243.748,-27.4881 238.342,-25.7098"/>
</g>
<!-- n2&#45;&#45;n0 -->
<g id="edge2" class="edge"><title>n2&#45;&#45;n0</title>
<path fill="none" stroke="black" d="M285.116,-53.5122C288.491,-58.2915 292.183,-63.5199 295.553,-68.291"/>
</g>
<!-- n1&#45;&#45;n0 -->
<g id="edge1" class="edge"><title>n1&#45;&#45;n0</title>
<path fill="none" stroke="black" d="M235.494,-31.3904C251.268,-43.089 275.211,-60.8459 290.95,-72.5185"/>
</g>
</g>
</svg>
