<?xml version="1.0" standalone="yes"?>
<!-- SVG graphic -->
<svg xmlns='http://www.w3.org/2000/svg' xmlns:xlink='http://www.w3.org/1999/xlink'
width="70px" height="70px" preserveAspectRatio="xMinYMin meet" viewBox="0 0 70 70" version="1.1">
<rect x="5" y="0" width="2.5" height="2.5" fill="blue"/>
<rect x="10" y="0" width="2.5" height="2.5" fill="blue"/>
<rect x="15" y="0" width="2.5" height="2.5" fill="blue"/>
<rect x="20" y="0" width="2.5" height="2.5" fill="blue"/>
<rect x="25" y="0" width="2.5" height="2.5" fill="blue"/>
<rect x="30" y="0" width="2.5" height="2.5" fill="blue"/>
<rect x="35" y="0" width="2.5" height="2.5" fill="blue"/>
<rect x="40" y="0" width="2.5" height="2.5" fill="blue"/>
<rect x="45" y="0" width="2.5" height="2.5" fill="blue"/>
<rect x="50" y="0" width="2.5" height="2.5" fill="blue"/>
<rect x="10" y="5" width="2.5" height="2.5" fill="blue"/>
<rect x="15" y="5" width="2.5" height="2.5" fill="blue"/>
<rect x="20" y="5" width="2.5" height="2.5" fill="blue"/>
<rect x="25" y="5" width="2.5" height="2.5" fill="blue"/>
<rect x="30" y="5" width="2.5" height="2.5" fill="blue"/>
<rect x="35" y="5" width="2.5" height="2.5" fill="blue"/>
<rect x="40" y="5" width="2.5" height="2.5" fill="blue"/>
<rect x="45" y="5" width="2.5" height="2.5" fill="blue"/>
<rect x="50" y="5" width="2.5" height="2.5" fill="blue"/>
<rect x="15" y="10" width="2.5" height="2.5" fill="blue"/>
<rect x="20" y="10" width="2.5" height="2.5" fill="blue"/>
<rect x="25" y="10" width="2.5" height="2.5" fill="blue"/>
<rect x="30" y="10" width="2.5" height="2.5" fill="blue"/>
<rect x="35" y="10" width="2.5" height="2.5" fill="blue"/>
<rect x="40" y="10" width="2.5" height="2.5" fill="blue"/>
<rect x="45" y="10" width="2.5" height="2.5" fill="blue"/>
<rect x="50" y="10" width="2.5" height="2.5" fill="blue"/>
<rect x="20" y="15" width="2.5" height="2.5" fill="blue"/>
<rect x="25" y="15" width="2.5" height="2.5" fill="blue"/>
<rect x="30" y="15" width="2.5" height="2.5" fill="blue"/>
<rect x="35" y="15" width="2.5" height="2.5" fill="blue"/>
<rect x="40" y="15" width="2.5" height="2.5" fill="blue"/>
<rect x="45" y="15" width="2.5" height="2.5" fill="blue"/>
<rect x="50" y="15" width="2.5" height="2.5" fill="blue"/>
<rect x="25" y="20" width="2.5" height="2.5" fill="blue"/>
<rect x="30" y="20" width="2.5" height="2.5" fill="blue"/>
<rect x="35" y="20" width="2.5" height="2.5" fill="blue"/>
<rect x="40" y="20" width="2.5" height="2.5" fill="blue"/>
<rect x="45" y="20" width="2.5" height="2.5" fill="blue"/>
<rect x="50" y="20" width="2.5" height="2.5" fill="blue"/>
<rect x="30" y="25" width="2.5" height="2.5" fill="blue"/>
<rect x="35" y="25" width="2.5" height="2.5" fill="blue"/>
<rect x="40" y="25" width="2.5" height="2.5" fill="blue"/>
<rect x="45" y="25" width="2.5" height="2.5" fill="blue"/>
<rect x="50" y="25" width="2.5" height="2.5" fill="blue"/>
<rect x="35" y="30" width="2.5" height="2.5" fill="blue"/>
<rect x="40" y="30" width="2.5" height="2.5" fill="blue"/>
<rect x="45" y="30" width="2.5" height="2.5" fill="blue"/>
<rect x="50" y="30" width="2.5" height="2.5" fill="blue"/>
<rect x="40" y="35" width="2.5" height="2.5" fill="blue"/>
<rect x="45" y="35" width="2.5" height="2.5" fill="blue"/>
<rect x="50" y="35" width="2.5" height="2.5" fill="blue"/>
<rect x="45" y="40" width="2.5" height="2.5" fill="blue"/>
<rect x="50" y="40" width="2.5" height="2.5" fill="blue"/>
<rect x="50" y="45" width="2.5" height="2.5" fill="blue"/>
<text x="60" y="5" font-size="5" fill="black">0</text>
<text x="60" y="50" font-size="5" fill="black">11</text>
<polyline points="60,10,60,45" stroke="black" stroke-width="1" fill="none"/>
<text x="5" y="60" font-size="5" fill="black">0</text>
<text x="50" y="60" font-size="5" fill="black">11</text>
<polyline points="10,60,45,60" stroke="black" stroke-width="1" fill="none"/>
</svg>