<?xml version="1.0" encoding="UTF-8" standalone="no"?>
<!DOCTYPE svg PUBLIC "-//W3C//DTD SVG 1.1//EN"
 "http://www.w3.org/Graphics/SVG/1.1/DTD/svg11.dtd">
<!-- Generated by graphviz version 2.36.0 (20140111.2315)
 -->
<!-- Title: 1 Pages: 1 -->
<svg width="258pt" height="249pt"
 viewBox="0.00 0.00 257.73 248.59" xmlns="http://www.w3.org/2000/svg" xmlns:xlink="http://www.w3.org/1999/xlink">
<g id="graph0" class="graph" transform="scale(1 1) rotate(0) translate(4 244.587)">
<title>1</title>
<polygon fill="white" stroke="none" points="-4,4 -4,-244.587 253.727,-244.587 253.727,4 -4,4"/>
<!-- n10 -->
<g id="node1" class="node"><title>n10</title>
<ellipse fill="none" stroke="black" cx="24.0479" cy="-135.328" rx="24.0958" ry="24.0958"/>
<text text-anchor="middle" x="24.0479" y="-131.628" font-family="Times,serif" font-size="14.00">n10</text>
</g>
<!-- n9 -->
<g id="node2" class="node"><title>n9</title>
<ellipse fill="none" stroke="black" cx="225.84" cy="-161.533" rx="19.4965" ry="19.4965"/>
<text text-anchor="middle" x="225.84" y="-157.833" font-family="Times,serif" font-size="14.00">n9</text>
</g>
<!-- n10&#45;&#45;n9 -->
<g id="edge55" class="edge"><title>n10&#45;&#45;n9</title>
<path fill="none" stroke="black" d="M47.9885,-138.437C88.3911,-143.684 169.327,-154.195 206.438,-159.014"/>
</g>
<!-- n8 -->
<g id="node3" class="node"><title>n8</title>
<ellipse fill="none" stroke="black" cx="117.77" cy="-19.4983" rx="19.4965" ry="19.4965"/>
<text text-anchor="middle" x="117.77" y="-15.7983" font-family="Times,serif" font-size="14.00">n8</text>
</g>
<!-- n10&#45;&#45;n8 -->
<g id="edge54" class="edge"><title>n10&#45;&#45;n8</title>
<path fill="none" stroke="black" d="M39.3146,-116.46C57.7803,-93.6389 88.4973,-55.6763 105.501,-34.6614"/>
</g>
<!-- n7 -->
<g id="node4" class="node"><title>n7</title>
<ellipse fill="none" stroke="black" cx="118.309" cy="-221.088" rx="19.4965" ry="19.4965"/>
<text text-anchor="middle" x="118.309" y="-217.388" font-family="Times,serif" font-size="14.00">n7</text>
</g>
<!-- n10&#45;&#45;n7 -->
<g id="edge53" class="edge"><title>n10&#45;&#45;n7</title>
<path fill="none" stroke="black" d="M42.2224,-151.864C60.091,-168.121 87.0256,-192.626 103.594,-207.7"/>
</g>
<!-- n6 -->
<g id="node5" class="node"><title>n6</title>
<ellipse fill="none" stroke="black" cx="179.274" cy="-208.53" rx="19.4965" ry="19.4965"/>
<text text-anchor="middle" x="179.274" y="-204.83" font-family="Times,serif" font-size="14.00">n6</text>
</g>
<!-- n10&#45;&#45;n6 -->
<g id="edge52" class="edge"><title>n10&#45;&#45;n6</title>
<path fill="none" stroke="black" d="M45.9588,-145.661C76.88,-160.243 132.732,-186.582 161.334,-200.07"/>
</g>
<!-- n5 -->
<g id="node6" class="node"><title>n5</title>
<ellipse fill="none" stroke="black" cx="62.3682" cy="-194.233" rx="19.4965" ry="19.4965"/>
<text text-anchor="middle" x="62.3682" y="-190.533" font-family="Times,serif" font-size="14.00">n5</text>
</g>
<!-- n10&#45;&#45;n5 -->
<g id="edge51" class="edge"><title>n10&#45;&#45;n5</title>
<path fill="none" stroke="black" d="M37.2356,-155.6C41.9119,-162.788 47.1157,-170.787 51.5696,-177.634"/>
</g>
<!-- n4 -->
<g id="node7" class="node"><title>n4</title>
<ellipse fill="none" stroke="black" cx="49.8991" cy="-49.5014" rx="19.4965" ry="19.4965"/>
<text text-anchor="middle" x="49.8991" y="-45.8014" font-family="Times,serif" font-size="14.00">n4</text>
</g>
<!-- n10&#45;&#45;n4 -->
<g id="edge50" class="edge"><title>n10&#45;&#45;n4</title>
<path fill="none" stroke="black" d="M31.1118,-111.876C35.2378,-98.1771 40.3748,-81.1221 44.2339,-68.3099"/>
</g>
<!-- n3 -->
<g id="node8" class="node"><title>n3</title>
<ellipse fill="none" stroke="black" cx="230.228" cy="-88.5923" rx="19.4965" ry="19.4965"/>
<text text-anchor="middle" x="230.228" y="-84.8923" font-family="Times,serif" font-size="14.00">n3</text>
</g>
<!-- n10&#45;&#45;n3 -->
<g id="edge49" class="edge"><title>n10&#45;&#45;n3</title>
<path fill="none" stroke="black" d="M47.6994,-129.967C88.9517,-120.616 173.265,-101.504 211.103,-92.9275"/>
</g>
<!-- n2 -->
<g id="node9" class="node"><title>n2</title>
<ellipse fill="none" stroke="black" cx="83.6369" cy="-105.717" rx="19.4965" ry="19.4965"/>
<text text-anchor="middle" x="83.6369" y="-102.017" font-family="Times,serif" font-size="14.00">n2</text>
</g>
<!-- n10&#45;&#45;n2 -->
<g id="edge48" class="edge"><title>n10&#45;&#45;n2</title>
<path fill="none" stroke="black" d="M45.8983,-124.47C52.5415,-121.169 59.7532,-117.586 66.0755,-114.444"/>
</g>
<!-- n1 -->
<g id="node10" class="node"><title>n1</title>
<ellipse fill="none" stroke="black" cx="184.09" cy="-32.9874" rx="19.4965" ry="19.4965"/>
<text text-anchor="middle" x="184.09" y="-29.2874" font-family="Times,serif" font-size="14.00">n1</text>
</g>
<!-- n10&#45;&#45;n1 -->
<g id="edge47" class="edge"><title>n10&#45;&#45;n1</title>
<path fill="none" stroke="black" d="M44.3173,-122.367C76.2798,-101.928 137.791,-62.5941 167.383,-43.6711"/>
</g>
<!-- n0 -->
<g id="node11" class="node"><title>n0</title>
<ellipse fill="none" stroke="black" cx="159.083" cy="-116.024" rx="19.4965" ry="19.4965"/>
<text text-anchor="middle" x="159.083" y="-112.324" font-family="Times,serif" font-size="14.00">n0</text>
</g>
<!-- n10&#45;&#45;n0 -->
<g id="edge46" class="edge"><title>n10&#45;&#45;n0</title>
<path fill="none" stroke="black" d="M47.8786,-131.921C73.9244,-128.198 115.171,-122.301 139.434,-118.833"/>
</g>
<!-- n9&#45;&#45;n8 -->
<g id="edge45" class="edge"><title>n9&#45;&#45;n8</title>
<path fill="none" stroke="black" d="M213.861,-145.791C193.088,-118.488 150.613,-62.6628 129.802,-35.3117"/>
</g>
<!-- n9&#45;&#45;n7 -->
<g id="edge44" class="edge"><title>n9&#45;&#45;n7</title>
<path fill="none" stroke="black" d="M208.563,-171.102C188.497,-182.216 155.591,-200.44 135.543,-211.543"/>
</g>
<!-- n9&#45;&#45;n6 -->
<g id="edge43" class="edge"><title>n9&#45;&#45;n6</title>
<path fill="none" stroke="black" d="M211.869,-175.634C205.975,-181.582 199.128,-188.492 193.236,-194.439"/>
</g>
<!-- n9&#45;&#45;n5 -->
<g id="edge42" class="edge"><title>n9&#45;&#45;n5</title>
<path fill="none" stroke="black" d="M206.445,-165.413C174.984,-171.706 113.183,-184.069 81.7373,-190.359"/>
</g>
<!-- n9&#45;&#45;n4 -->
<g id="edge41" class="edge"><title>n9&#45;&#45;n4</title>
<path fill="none" stroke="black" d="M209.288,-150.994C175.755,-129.641 100.138,-81.4918 66.5353,-60.0947"/>
</g>
<!-- n9&#45;&#45;n3 -->
<g id="edge40" class="edge"><title>n9&#45;&#45;n3</title>
<path fill="none" stroke="black" d="M227.016,-141.987C227.645,-131.521 228.419,-118.667 229.049,-108.193"/>
</g>
<!-- n9&#45;&#45;n2 -->
<g id="edge39" class="edge"><title>n9&#45;&#45;n2</title>
<path fill="none" stroke="black" d="M207.54,-154.351C180.236,-143.633 129.13,-123.574 101.866,-112.873"/>
</g>
<!-- n9&#45;&#45;n1 -->
<g id="edge38" class="edge"><title>n9&#45;&#45;n1</title>
<path fill="none" stroke="black" d="M219.769,-142.842C211.854,-118.47 198.087,-76.0842 190.168,-51.7017"/>
</g>
<!-- n9&#45;&#45;n0 -->
<g id="edge37" class="edge"><title>n9&#45;&#45;n0</title>
<path fill="none" stroke="black" d="M209.68,-150.517C199.338,-143.467 185.96,-134.347 175.558,-127.255"/>
</g>
<!-- n8&#45;&#45;n7 -->
<g id="edge36" class="edge"><title>n8&#45;&#45;n7</title>
<path fill="none" stroke="black" d="M117.823,-39.1946C117.926,-77.7339 118.153,-162.709 118.257,-201.312"/>
</g>
<!-- n8&#45;&#45;n6 -->
<g id="edge35" class="edge"><title>n8&#45;&#45;n6</title>
<path fill="none" stroke="black" d="M123.892,-38.3144C135.682,-74.548 161.408,-153.616 173.177,-189.79"/>
</g>
<!-- n8&#45;&#45;n5 -->
<g id="edge34" class="edge"><title>n8&#45;&#45;n5</title>
<path fill="none" stroke="black" d="M111.841,-38.198C101.206,-71.7415 79.0035,-141.767 68.3383,-175.404"/>
</g>
<!-- n8&#45;&#45;n4 -->
<g id="edge33" class="edge"><title>n8&#45;&#45;n4</title>
<path fill="none" stroke="black" d="M99.5821,-27.5386C89.8441,-31.8433 77.8832,-37.1307 68.1375,-41.4389"/>
</g>
<!-- n8&#45;&#45;n3 -->
<g id="edge32" class="edge"><title>n8&#45;&#45;n3</title>
<path fill="none" stroke="black" d="M134.85,-29.9922C156.11,-43.0542 192.193,-65.2236 213.356,-78.226"/>
</g>
<!-- n8&#45;&#45;n2 -->
<g id="edge31" class="edge"><title>n8&#45;&#45;n2</title>
<path fill="none" stroke="black" d="M110.532,-37.7831C104.739,-52.4148 96.6551,-72.8342 90.8653,-87.4589"/>
</g>
<!-- n8&#45;&#45;n1 -->
<g id="edge30" class="edge"><title>n8&#45;&#45;n1</title>
<path fill="none" stroke="black" d="M136.953,-23.3999C145.675,-25.174 155.977,-27.2692 164.721,-29.0478"/>
</g>
<!-- n8&#45;&#45;n0 -->
<g id="edge29" class="edge"><title>n8&#45;&#45;n0</title>
<path fill="none" stroke="black" d="M125.541,-37.6539C132.927,-54.9111 143.973,-80.7191 151.347,-97.9493"/>
</g>
<!-- n7&#45;&#45;n6 -->
<g id="edge28" class="edge"><title>n7&#45;&#45;n6</title>
<path fill="none" stroke="black" d="M137.599,-217.115C144.716,-215.649 152.777,-213.988 159.901,-212.521"/>
</g>
<!-- n7&#45;&#45;n5 -->
<g id="edge27" class="edge"><title>n7&#45;&#45;n5</title>
<path fill="none" stroke="black" d="M100.609,-212.591C94.0793,-209.456 86.682,-205.905 80.1452,-202.767"/>
</g>
<!-- n7&#45;&#45;n4 -->
<g id="edge26" class="edge"><title>n7&#45;&#45;n4</title>
<path fill="none" stroke="black" d="M110.988,-202.725C97.8212,-169.7 70.2962,-100.662 57.1675,-67.7321"/>
</g>
<!-- n7&#45;&#45;n3 -->
<g id="edge25" class="edge"><title>n7&#45;&#45;n3</title>
<path fill="none" stroke="black" d="M130.93,-206.147C152.425,-180.7 195.902,-129.23 217.482,-103.682"/>
</g>
<!-- n7&#45;&#45;n2 -->
<g id="edge24" class="edge"><title>n7&#45;&#45;n2</title>
<path fill="none" stroke="black" d="M112.661,-202.295C106.214,-180.841 95.7289,-145.953 89.2824,-124.503"/>
</g>
<!-- n7&#45;&#45;n1 -->
<g id="edge23" class="edge"><title>n7&#45;&#45;n1</title>
<path fill="none" stroke="black" d="M124.857,-202.365C137.466,-166.31 164.981,-87.6306 177.569,-51.6352"/>
</g>
<!-- n7&#45;&#45;n0 -->
<g id="edge22" class="edge"><title>n7&#45;&#45;n0</title>
<path fill="none" stroke="black" d="M125.412,-202.787C132.85,-183.621 144.466,-153.687 151.925,-134.467"/>
</g>
<!-- n6&#45;&#45;n5 -->
<g id="edge21" class="edge"><title>n6&#45;&#45;n5</title>
<path fill="none" stroke="black" d="M159.707,-206.137C138.127,-203.498 103.605,-199.276 81.9995,-196.634"/>
</g>
<!-- n6&#45;&#45;n4 -->
<g id="edge20" class="edge"><title>n6&#45;&#45;n4</title>
<path fill="none" stroke="black" d="M166.869,-193.282C142.204,-162.963 87.2466,-95.4092 62.4567,-64.9372"/>
</g>
<!-- n6&#45;&#45;n3 -->
<g id="edge19" class="edge"><title>n6&#45;&#45;n3</title>
<path fill="none" stroke="black" d="M186.903,-190.574C196.509,-167.963 212.917,-129.339 222.548,-106.671"/>
</g>
<!-- n6&#45;&#45;n2 -->
<g id="edge18" class="edge"><title>n6&#45;&#45;n2</title>
<path fill="none" stroke="black" d="M165.976,-194.234C147.807,-174.702 115.401,-139.864 97.1303,-120.223"/>
</g>
<!-- n6&#45;&#45;n1 -->
<g id="edge17" class="edge"><title>n6&#45;&#45;n1</title>
<path fill="none" stroke="black" d="M179.817,-188.734C180.745,-154.93 182.623,-86.4653 183.549,-52.7108"/>
</g>
<!-- n6&#45;&#45;n0 -->
<g id="edge16" class="edge"><title>n6&#45;&#45;n0</title>
<path fill="none" stroke="black" d="M175.091,-189.363C171.625,-173.486 166.725,-151.036 163.261,-135.166"/>
</g>
<!-- n5&#45;&#45;n4 -->
<g id="edge15" class="edge"><title>n5&#45;&#45;n4</title>
<path fill="none" stroke="black" d="M60.6866,-174.714C58.3068,-147.091 53.9809,-96.8798 51.5939,-69.1736"/>
</g>
<!-- n5&#45;&#45;n3 -->
<g id="edge14" class="edge"><title>n5&#45;&#45;n3</title>
<path fill="none" stroke="black" d="M79.077,-183.718C111.252,-163.469 181.465,-119.281 213.587,-99.0653"/>
</g>
<!-- n5&#45;&#45;n2 -->
<g id="edge13" class="edge"><title>n5&#45;&#45;n2</title>
<path fill="none" stroke="black" d="M66.9832,-175.027C70.5507,-160.18 75.4657,-139.724 79.0309,-124.887"/>
</g>
<!-- n5&#45;&#45;n1 -->
<g id="edge12" class="edge"><title>n5&#45;&#45;n1</title>
<path fill="none" stroke="black" d="M74.2611,-178.479C97.5913,-147.573 149.104,-79.334 172.328,-48.5685"/>
</g>
<!-- n5&#45;&#45;n0 -->
<g id="edge11" class="edge"><title>n5&#45;&#45;n0</title>
<path fill="none" stroke="black" d="M77.9071,-181.668C96.0619,-166.986 125.902,-142.856 143.901,-128.3"/>
</g>
<!-- n4&#45;&#45;n3 -->
<g id="edge10" class="edge"><title>n4&#45;&#45;n3</title>
<path fill="none" stroke="black" d="M69.1975,-53.6848C103.906,-61.2087 176.462,-76.937 211.069,-84.439"/>
</g>
<!-- n4&#45;&#45;n2 -->
<g id="edge9" class="edge"><title>n4&#45;&#45;n2</title>
<path fill="none" stroke="black" d="M60.0215,-66.3681C64.2916,-73.4832 69.2523,-81.7489 73.5216,-88.8627"/>
</g>
<!-- n4&#45;&#45;n1 -->
<g id="edge8" class="edge"><title>n4&#45;&#45;n1</title>
<path fill="none" stroke="black" d="M69.4116,-47.1001C94.8533,-43.9692 139.101,-38.5239 164.554,-35.3916"/>
</g>
<!-- n4&#45;&#45;n0 -->
<g id="edge7" class="edge"><title>n4&#45;&#45;n0</title>
<path fill="none" stroke="black" d="M66.959,-59.8955C87.471,-72.3927 121.684,-93.2378 142.143,-105.702"/>
</g>
<!-- n3&#45;&#45;n2 -->
<g id="edge6" class="edge"><title>n3&#45;&#45;n2</title>
<path fill="none" stroke="black" d="M210.762,-90.8664C182.724,-94.1418 131.266,-100.153 103.184,-103.434"/>
</g>
<!-- n3&#45;&#45;n1 -->
<g id="edge5" class="edge"><title>n3&#45;&#45;n1</title>
<path fill="none" stroke="black" d="M217.621,-73.398C211.111,-65.5521 203.19,-56.0066 196.682,-48.1633"/>
</g>
<!-- n3&#45;&#45;n0 -->
<g id="edge4" class="edge"><title>n3&#45;&#45;n0</title>
<path fill="none" stroke="black" d="M211.907,-95.6565C201.367,-99.7204 188.161,-104.812 177.59,-108.888"/>
</g>
<!-- n2&#45;&#45;n1 -->
<g id="edge3" class="edge"><title>n2&#45;&#45;n1</title>
<path fill="none" stroke="black" d="M99.7765,-94.0321C118.522,-80.4599 149.262,-58.2036 167.991,-44.6438"/>
</g>
<!-- n2&#45;&#45;n0 -->
<g id="edge2" class="edge"><title>n2&#45;&#45;n0</title>
<path fill="none" stroke="black" d="M103.066,-108.372C114.33,-109.91 128.466,-111.841 139.719,-113.379"/>
</g>
<!-- n1&#45;&#45;n0 -->
<g id="edge1" class="edge"><title>n1&#45;&#45;n0</title>
<path fill="none" stroke="black" d="M178.416,-51.8296C174.323,-65.419 168.822,-83.6837 164.735,-97.256"/>
</g>
</g>
</svg>
