<?xml version="1.0" encoding="UTF-8" standalone="no"?>
<!DOCTYPE svg PUBLIC "-//W3C//DTD SVG 1.1//EN"
 "http://www.w3.org/Graphics/SVG/1.1/DTD/svg11.dtd">
<!-- Generated by graphviz version 2.36.0 (20140111.2315)
 -->
<!-- Title: 1 Pages: 1 -->
<svg width="821pt" height="778pt"
 viewBox="0.00 0.00 820.65 777.85" xmlns="http://www.w3.org/2000/svg" xmlns:xlink="http://www.w3.org/1999/xlink">
<g id="graph0" class="graph" transform="scale(1 1) rotate(0) translate(4 773.85)">
<title>1</title>
<polygon fill="white" stroke="none" points="-4,4 -4,-773.85 816.645,-773.85 816.645,4 -4,4"/>
<!-- n21 -->
<g id="node1" class="node"><title>n21</title>
<ellipse fill="none" stroke="black" cx="24.0479" cy="-290.955" rx="24.0958" ry="24.0958"/>
<text text-anchor="middle" x="24.0479" y="-287.255" font-family="Times,serif" font-size="14.00">n21</text>
</g>
<!-- n20 -->
<g id="node2" class="node"><title>n20</title>
<ellipse fill="none" stroke="black" cx="194.014" cy="-321.184" rx="24.0958" ry="24.0958"/>
<text text-anchor="middle" x="194.014" y="-317.484" font-family="Times,serif" font-size="14.00">n20</text>
</g>
<!-- n21&#45;&#45;n20 -->
<g id="edge137" class="edge"><title>n21&#45;&#45;n20</title>
<path fill="none" stroke="black" d="M48.0393,-295.222C80.4326,-300.983 137.814,-311.189 170.144,-316.939"/>
</g>
<!-- n19 -->
<g id="node3" class="node"><title>n19</title>
<ellipse fill="none" stroke="black" cx="330.463" cy="-227.267" rx="24.0958" ry="24.0958"/>
<text text-anchor="middle" x="330.463" y="-223.567" font-family="Times,serif" font-size="14.00">n19</text>
</g>
<!-- n21&#45;&#45;n19 -->
<g id="edge136" class="edge"><title>n21&#45;&#45;n19</title>
<path fill="none" stroke="black" d="M47.8367,-286.01C105.066,-274.115 249.901,-244.011 306.899,-232.164"/>
</g>
<!-- n18 -->
<g id="node4" class="node"><title>n18</title>
<ellipse fill="none" stroke="black" cx="325.579" cy="-386.376" rx="24.0958" ry="24.0958"/>
<text text-anchor="middle" x="325.579" y="-382.676" font-family="Times,serif" font-size="14.00">n18</text>
</g>
<!-- n21&#45;&#45;n18 -->
<g id="edge135" class="edge"><title>n21&#45;&#45;n18</title>
<path fill="none" stroke="black" d="M47.2078,-298.284C103.335,-316.046 246.132,-361.235 302.34,-379.022"/>
</g>
<!-- n13 -->
<g id="node9" class="node"><title>n13</title>
<ellipse fill="none" stroke="black" cx="232.713" cy="-24.0479" rx="24.0958" ry="24.0958"/>
<text text-anchor="middle" x="232.713" y="-20.3479" font-family="Times,serif" font-size="14.00">n13</text>
</g>
<!-- n21&#45;&#45;n13 -->
<g id="edge134" class="edge"><title>n21&#45;&#45;n13</title>
<path fill="none" stroke="black" d="M39.0545,-271.76C77.5548,-222.513 179.492,-92.1239 217.842,-43.0692"/>
</g>
<!-- n3 -->
<g id="node19" class="node"><title>n3</title>
<ellipse fill="none" stroke="black" cx="218.853" cy="-436.792" rx="19.4965" ry="19.4965"/>
<text text-anchor="middle" x="218.853" y="-433.092" font-family="Times,serif" font-size="14.00">n3</text>
</g>
<!-- n21&#45;&#45;n3 -->
<g id="edge133" class="edge"><title>n21&#45;&#45;n3</title>
<path fill="none" stroke="black" d="M43.4388,-305.471C82.0301,-334.362 167.772,-398.551 203.136,-425.025"/>
</g>
<!-- n2 -->
<g id="node20" class="node"><title>n2</title>
<ellipse fill="none" stroke="black" cx="288.867" cy="-278.813" rx="19.4965" ry="19.4965"/>
<text text-anchor="middle" x="288.867" y="-275.113" font-family="Times,serif" font-size="14.00">n2</text>
</g>
<!-- n21&#45;&#45;n2 -->
<g id="edge132" class="edge"><title>n21&#45;&#45;n2</title>
<path fill="none" stroke="black" d="M48.4867,-289.834C100.6,-287.445 221.758,-281.89 269.26,-279.712"/>
</g>
<!-- n1 -->
<g id="node21" class="node"><title>n1</title>
<ellipse fill="none" stroke="black" cx="119.333" cy="-201.138" rx="19.4965" ry="19.4965"/>
<text text-anchor="middle" x="119.333" y="-197.438" font-family="Times,serif" font-size="14.00">n1</text>
</g>
<!-- n21&#45;&#45;n1 -->
<g id="edge131" class="edge"><title>n21&#45;&#45;n1</title>
<path fill="none" stroke="black" d="M41.9702,-274.061C60.1916,-256.885 88.0701,-230.606 104.914,-214.729"/>
</g>
<!-- n0 -->
<g id="node22" class="node"><title>n0</title>
<ellipse fill="none" stroke="black" cx="77.3257" cy="-72.8847" rx="19.4965" ry="19.4965"/>
<text text-anchor="middle" x="77.3257" y="-69.1847" font-family="Times,serif" font-size="14.00">n0</text>
</g>
<!-- n21&#45;&#45;n0 -->
<g id="edge130" class="edge"><title>n21&#45;&#45;n0</title>
<path fill="none" stroke="black" d="M29.8509,-267.202C40.5039,-223.599 62.9761,-131.619 72.6903,-91.8577"/>
</g>
<!-- n20&#45;&#45;n19 -->
<g id="edge129" class="edge"><title>n20&#45;&#45;n19</title>
<path fill="none" stroke="black" d="M213.855,-307.528C239.724,-289.722 284.716,-258.754 310.598,-240.94"/>
</g>
<!-- n20&#45;&#45;n18 -->
<g id="edge128" class="edge"><title>n20&#45;&#45;n18</title>
<path fill="none" stroke="black" d="M215.739,-331.95C240.116,-344.029 279.431,-363.51 303.821,-375.595"/>
</g>
<!-- n17 -->
<g id="node5" class="node"><title>n17</title>
<ellipse fill="none" stroke="black" cx="456.306" cy="-335.453" rx="24.0958" ry="24.0958"/>
<text text-anchor="middle" x="456.306" y="-331.753" font-family="Times,serif" font-size="14.00">n17</text>
</g>
<!-- n20&#45;&#45;n17 -->
<g id="edge127" class="edge"><title>n20&#45;&#45;n17</title>
<path fill="none" stroke="black" d="M218.219,-322.501C268.187,-325.219 382.241,-331.424 432.158,-334.139"/>
</g>
<!-- n16 -->
<g id="node6" class="node"><title>n16</title>
<ellipse fill="none" stroke="black" cx="482.007" cy="-474.091" rx="24.0958" ry="24.0958"/>
<text text-anchor="middle" x="482.007" y="-470.391" font-family="Times,serif" font-size="14.00">n16</text>
</g>
<!-- n20&#45;&#45;n16 -->
<g id="edge126" class="edge"><title>n20&#45;&#45;n16</title>
<path fill="none" stroke="black" d="M215.66,-332.677C269.163,-361.084 407.15,-434.346 460.503,-462.673"/>
</g>
<!-- n15 -->
<g id="node7" class="node"><title>n15</title>
<ellipse fill="none" stroke="black" cx="356.088" cy="-561.959" rx="24.0958" ry="24.0958"/>
<text text-anchor="middle" x="356.088" y="-558.259" font-family="Times,serif" font-size="14.00">n15</text>
</g>
<!-- n20&#45;&#45;n15 -->
<g id="edge125" class="edge"><title>n20&#45;&#45;n15</title>
<path fill="none" stroke="black" d="M207.553,-341.299C238.061,-386.621 311.894,-496.304 342.473,-541.732"/>
</g>
<!-- n14 -->
<g id="node8" class="node"><title>n14</title>
<ellipse fill="none" stroke="black" cx="518.85" cy="-273.378" rx="24.0958" ry="24.0958"/>
<text text-anchor="middle" x="518.85" y="-269.678" font-family="Times,serif" font-size="14.00">n14</text>
</g>
<!-- n20&#45;&#45;n14 -->
<g id="edge124" class="edge"><title>n20&#45;&#45;n14</title>
<path fill="none" stroke="black" d="M217.9,-317.669C277.972,-308.828 434.82,-285.745 494.929,-276.899"/>
</g>
<!-- n20&#45;&#45;n13 -->
<g id="edge123" class="edge"><title>n20&#45;&#45;n13</title>
<path fill="none" stroke="black" d="M197.148,-297.12C204.417,-241.304 222.358,-103.552 229.603,-47.9221"/>
</g>
<!-- n12 -->
<g id="node10" class="node"><title>n12</title>
<ellipse fill="none" stroke="black" cx="414.832" cy="-195.757" rx="24.0958" ry="24.0958"/>
<text text-anchor="middle" x="414.832" y="-192.057" font-family="Times,serif" font-size="14.00">n12</text>
</g>
<!-- n20&#45;&#45;n12 -->
<g id="edge122" class="edge"><title>n20&#45;&#45;n12</title>
<path fill="none" stroke="black" d="M215.187,-309.158C257.394,-285.184 351.569,-231.691 393.723,-207.747"/>
</g>
<!-- n5 -->
<g id="node17" class="node"><title>n5</title>
<ellipse fill="none" stroke="black" cx="406.065" cy="-509.657" rx="19.4965" ry="19.4965"/>
<text text-anchor="middle" x="406.065" y="-505.957" font-family="Times,serif" font-size="14.00">n5</text>
</g>
<!-- n20&#45;&#45;n5 -->
<g id="edge121" class="edge"><title>n20&#45;&#45;n5</title>
<path fill="none" stroke="black" d="M212.093,-337.254C253.357,-373.93 353.813,-463.215 391.479,-496.693"/>
</g>
<!-- n4 -->
<g id="node18" class="node"><title>n4</title>
<ellipse fill="none" stroke="black" cx="283.831" cy="-487.008" rx="19.4965" ry="19.4965"/>
<text text-anchor="middle" x="283.831" y="-483.308" font-family="Times,serif" font-size="14.00">n4</text>
</g>
<!-- n20&#45;&#45;n4 -->
<g id="edge120" class="edge"><title>n20&#45;&#45;n4</title>
<path fill="none" stroke="black" d="M205.572,-342.523C223.576,-375.763 257.964,-439.251 274.499,-469.777"/>
</g>
<!-- n20&#45;&#45;n3 -->
<g id="edge119" class="edge"><title>n20&#45;&#45;n3</title>
<path fill="none" stroke="black" d="M199.1,-344.858C203.699,-366.261 210.388,-397.391 214.68,-417.366"/>
</g>
<!-- n20&#45;&#45;n2 -->
<g id="edge118" class="edge"><title>n20&#45;&#45;n2</title>
<path fill="none" stroke="black" d="M216.013,-311.357C232.651,-303.925 255.215,-293.846 270.803,-286.882"/>
</g>
<!-- n20&#45;&#45;n1 -->
<g id="edge117" class="edge"><title>n20&#45;&#45;n1</title>
<path fill="none" stroke="black" d="M181.176,-300.548C166.663,-277.219 143.308,-239.678 129.836,-218.021"/>
</g>
<!-- n20&#45;&#45;n0 -->
<g id="edge116" class="edge"><title>n20&#45;&#45;n0</title>
<path fill="none" stroke="black" d="M183.658,-299.149C160.846,-250.606 106.626,-135.233 85.7344,-90.7777"/>
</g>
<!-- n19&#45;&#45;n18 -->
<g id="edge115" class="edge"><title>n19&#45;&#45;n18</title>
<path fill="none" stroke="black" d="M329.721,-251.432C328.8,-281.424 327.24,-332.268 326.32,-362.245"/>
</g>
<!-- n19&#45;&#45;n17 -->
<g id="edge114" class="edge"><title>n19&#45;&#45;n17</title>
<path fill="none" stroke="black" d="M348.761,-242.998C372.62,-263.509 414.115,-299.182 437.985,-319.702"/>
</g>
<!-- n19&#45;&#45;n16 -->
<g id="edge113" class="edge"><title>n19&#45;&#45;n16</title>
<path fill="none" stroke="black" d="M343.122,-247.886C371.648,-294.347 440.684,-406.787 469.277,-453.356"/>
</g>
<!-- n19&#45;&#45;n15 -->
<g id="edge112" class="edge"><title>n19&#45;&#45;n15</title>
<path fill="none" stroke="black" d="M332.305,-251.337C337.022,-312.94 349.491,-475.8 354.227,-537.657"/>
</g>
<!-- n19&#45;&#45;n14 -->
<g id="edge111" class="edge"><title>n19&#45;&#45;n14</title>
<path fill="none" stroke="black" d="M353.941,-233.014C390.14,-241.874 459.174,-258.771 495.373,-267.631"/>
</g>
<!-- n19&#45;&#45;n13 -->
<g id="edge110" class="edge"><title>n19&#45;&#45;n13</title>
<path fill="none" stroke="black" d="M320.002,-205.519C301.237,-166.507 262.064,-85.0672 243.246,-45.9466"/>
</g>
<!-- n19&#45;&#45;n12 -->
<g id="edge109" class="edge"><title>n19&#45;&#45;n12</title>
<path fill="none" stroke="black" d="M353.072,-218.823C365.177,-214.302 380.046,-208.749 392.16,-204.224"/>
</g>
<!-- n11 -->
<g id="node11" class="node"><title>n11</title>
<ellipse fill="none" stroke="black" cx="560.126" cy="-363.155" rx="24.0958" ry="24.0958"/>
<text text-anchor="middle" x="560.126" y="-359.455" font-family="Times,serif" font-size="14.00">n11</text>
</g>
<!-- n19&#45;&#45;n11 -->
<g id="edge108" class="edge"><title>n19&#45;&#45;n11</title>
<path fill="none" stroke="black" d="M351.249,-239.566C394.863,-265.372 495.503,-324.919 539.221,-350.786"/>
</g>
<!-- n6 -->
<g id="node16" class="node"><title>n6</title>
<ellipse fill="none" stroke="black" cx="565.757" cy="-470.987" rx="19.4965" ry="19.4965"/>
<text text-anchor="middle" x="565.757" y="-467.287" font-family="Times,serif" font-size="14.00">n6</text>
</g>
<!-- n19&#45;&#45;n6 -->
<g id="edge107" class="edge"><title>n19&#45;&#45;n6</title>
<path fill="none" stroke="black" d="M347.384,-244.795C391.852,-290.854 511.366,-414.648 552.008,-456.746"/>
</g>
<!-- n19&#45;&#45;n5 -->
<g id="edge106" class="edge"><title>n19&#45;&#45;n5</title>
<path fill="none" stroke="black" d="M336.778,-250.858C351.435,-305.604 387.529,-440.422 400.939,-490.512"/>
</g>
<!-- n19&#45;&#45;n4 -->
<g id="edge105" class="edge"><title>n19&#45;&#45;n4</title>
<path fill="none" stroke="black" d="M326.159,-251.237C316.983,-302.351 295.648,-421.186 287.284,-467.777"/>
</g>
<!-- n19&#45;&#45;n3 -->
<g id="edge104" class="edge"><title>n19&#45;&#45;n3</title>
<path fill="none" stroke="black" d="M319.147,-248.51C297.035,-290.021 248.478,-381.177 228.122,-419.392"/>
</g>
<!-- n19&#45;&#45;n2 -->
<g id="edge103" class="edge"><title>n19&#45;&#45;n2</title>
<path fill="none" stroke="black" d="M315.21,-246.168C310.573,-251.915 305.539,-258.153 301.126,-263.622"/>
</g>
<!-- n19&#45;&#45;n1 -->
<g id="edge102" class="edge"><title>n19&#45;&#45;n1</title>
<path fill="none" stroke="black" d="M306.243,-224.269C264.001,-219.042 177.664,-208.357 138.917,-203.561"/>
</g>
<!-- n19&#45;&#45;n0 -->
<g id="edge101" class="edge"><title>n19&#45;&#45;n0</title>
<path fill="none" stroke="black" d="M309.747,-214.633C260.863,-184.819 139.071,-110.542 94.2383,-83.1993"/>
</g>
<!-- n18&#45;&#45;n17 -->
<g id="edge100" class="edge"><title>n18&#45;&#45;n17</title>
<path fill="none" stroke="black" d="M348.052,-377.622C371.996,-368.295 409.689,-353.612 433.689,-344.263"/>
</g>
<!-- n18&#45;&#45;n16 -->
<g id="edge99" class="edge"><title>n18&#45;&#45;n16</title>
<path fill="none" stroke="black" d="M346.675,-398.206C376.614,-414.993 431.103,-445.547 460.996,-462.309"/>
</g>
<!-- n18&#45;&#45;n15 -->
<g id="edge98" class="edge"><title>n18&#45;&#45;n15</title>
<path fill="none" stroke="black" d="M329.757,-410.422C335.6,-444.046 346.145,-504.736 351.96,-538.203"/>
</g>
<!-- n18&#45;&#45;n14 -->
<g id="edge97" class="edge"><title>n18&#45;&#45;n14</title>
<path fill="none" stroke="black" d="M346.63,-374.068C383.808,-352.332 460.666,-307.396 497.825,-285.671"/>
</g>
<!-- n18&#45;&#45;n12 -->
<g id="edge96" class="edge"><title>n18&#45;&#45;n12</title>
<path fill="none" stroke="black" d="M335.817,-364.51C352.988,-327.838 387.393,-254.358 404.576,-217.661"/>
</g>
<!-- n18&#45;&#45;n11 -->
<g id="edge95" class="edge"><title>n18&#45;&#45;n11</title>
<path fill="none" stroke="black" d="M349.796,-383.979C394.858,-379.517 491.078,-369.991 536.04,-365.54"/>
</g>
<!-- n7 -->
<g id="node15" class="node"><title>n7</title>
<ellipse fill="none" stroke="black" cx="563.565" cy="-599.446" rx="19.4965" ry="19.4965"/>
<text text-anchor="middle" x="563.565" y="-595.746" font-family="Times,serif" font-size="14.00">n7</text>
</g>
<!-- n18&#45;&#45;n7 -->
<g id="edge94" class="edge"><title>n18&#45;&#45;n7</title>
<path fill="none" stroke="black" d="M343.858,-402.742C389.463,-443.572 507.566,-549.31 548.965,-586.375"/>
</g>
<!-- n18&#45;&#45;n6 -->
<g id="edge93" class="edge"><title>n18&#45;&#45;n6</title>
<path fill="none" stroke="black" d="M348.608,-394.489C396.042,-411.199 503.82,-449.168 547.179,-464.442"/>
</g>
<!-- n18&#45;&#45;n5 -->
<g id="edge92" class="edge"><title>n18&#45;&#45;n5</title>
<path fill="none" stroke="black" d="M338.869,-406.733C354.675,-430.943 380.747,-470.877 395.333,-493.219"/>
</g>
<!-- n18&#45;&#45;n4 -->
<g id="edge91" class="edge"><title>n18&#45;&#45;n4</title>
<path fill="none" stroke="black" d="M316.314,-408.71C308.819,-426.776 298.397,-451.899 291.398,-468.77"/>
</g>
<!-- n18&#45;&#45;n3 -->
<g id="edge90" class="edge"><title>n18&#45;&#45;n3</title>
<path fill="none" stroke="black" d="M303.724,-396.7C283.965,-406.034 255.227,-419.609 236.786,-428.32"/>
</g>
<!-- n18&#45;&#45;n2 -->
<g id="edge89" class="edge"><title>n18&#45;&#45;n2</title>
<path fill="none" stroke="black" d="M317.793,-363.565C311.058,-343.831 301.442,-315.658 295.178,-297.304"/>
</g>
<!-- n18&#45;&#45;n1 -->
<g id="edge88" class="edge"><title>n18&#45;&#45;n1</title>
<path fill="none" stroke="black" d="M307.637,-370.262C267.455,-334.172 170.877,-247.432 133.991,-214.303"/>
</g>
<!-- n17&#45;&#45;n16 -->
<g id="edge87" class="edge"><title>n17&#45;&#45;n16</title>
<path fill="none" stroke="black" d="M460.724,-359.285C465.431,-384.679 472.842,-424.653 477.561,-450.105"/>
</g>
<!-- n17&#45;&#45;n15 -->
<g id="edge86" class="edge"><title>n17&#45;&#45;n15</title>
<path fill="none" stroke="black" d="M446.514,-357.583C427.355,-400.886 385.111,-496.363 365.92,-539.738"/>
</g>
<!-- n17&#45;&#45;n14 -->
<g id="edge85" class="edge"><title>n17&#45;&#45;n14</title>
<path fill="none" stroke="black" d="M473.396,-318.49C482.221,-309.732 492.958,-299.076 501.78,-290.32"/>
</g>
<!-- n17&#45;&#45;n12 -->
<g id="edge84" class="edge"><title>n17&#45;&#45;n12</title>
<path fill="none" stroke="black" d="M449.457,-312.385C441.773,-286.501 429.379,-244.756 421.691,-218.859"/>
</g>
<!-- n17&#45;&#45;n11 -->
<g id="edge83" class="edge"><title>n17&#45;&#45;n11</title>
<path fill="none" stroke="black" d="M479.605,-341.67C496.584,-346.2 519.501,-352.315 536.545,-356.863"/>
</g>
<!-- n17&#45;&#45;n7 -->
<g id="edge82" class="edge"><title>n17&#45;&#45;n7</title>
<path fill="none" stroke="black" d="M465.45,-357.961C486.323,-409.333 537.135,-534.395 556.187,-581.288"/>
</g>
<!-- n17&#45;&#45;n6 -->
<g id="edge81" class="edge"><title>n17&#45;&#45;n6</title>
<path fill="none" stroke="black" d="M471.524,-354.298C493.375,-381.356 533.218,-430.695 553.374,-455.654"/>
</g>
<!-- n17&#45;&#45;n5 -->
<g id="edge80" class="edge"><title>n17&#45;&#45;n5</title>
<path fill="none" stroke="black" d="M449.634,-358.586C439.598,-393.385 420.805,-458.547 411.53,-490.708"/>
</g>
<!-- n17&#45;&#45;n4 -->
<g id="edge79" class="edge"><title>n17&#45;&#45;n4</title>
<path fill="none" stroke="black" d="M438.174,-351.385C403.924,-381.481 330.326,-446.152 298.735,-473.912"/>
</g>
<!-- n17&#45;&#45;n3 -->
<g id="edge78" class="edge"><title>n17&#45;&#45;n3</title>
<path fill="none" stroke="black" d="M433.967,-344.986C387.209,-364.941 279.826,-410.77 236.985,-429.053"/>
</g>
<!-- n17&#45;&#45;n2 -->
<g id="edge77" class="edge"><title>n17&#45;&#45;n2</title>
<path fill="none" stroke="black" d="M433.375,-327.696C399.878,-316.365 338.211,-295.504 307.402,-285.083"/>
</g>
<!-- n16&#45;&#45;n15 -->
<g id="edge76" class="edge"><title>n16&#45;&#45;n15</title>
<path fill="none" stroke="black" d="M462.055,-488.013C438.477,-504.467 399.484,-531.676 375.947,-548.101"/>
</g>
<!-- n16&#45;&#45;n14 -->
<g id="edge75" class="edge"><title>n16&#45;&#45;n14</title>
<path fill="none" stroke="black" d="M486.378,-450.278C493.469,-411.649 507.398,-335.769 514.485,-297.16"/>
</g>
<!-- n16&#45;&#45;n12 -->
<g id="edge74" class="edge"><title>n16&#45;&#45;n12</title>
<path fill="none" stroke="black" d="M476.28,-450.36C463.589,-397.775 433.223,-271.956 420.545,-219.427"/>
</g>
<!-- n16&#45;&#45;n11 -->
<g id="edge73" class="edge"><title>n16&#45;&#45;n11</title>
<path fill="none" stroke="black" d="M495.973,-454.258C510.104,-434.19 531.835,-403.331 546.017,-383.191"/>
</g>
<!-- n10 -->
<g id="node12" class="node"><title>n10</title>
<ellipse fill="none" stroke="black" cx="462.512" cy="-745.802" rx="24.0958" ry="24.0958"/>
<text text-anchor="middle" x="462.512" y="-742.102" font-family="Times,serif" font-size="14.00">n10</text>
</g>
<!-- n16&#45;&#45;n10 -->
<g id="edge72" class="edge"><title>n16&#45;&#45;n10</title>
<path fill="none" stroke="black" d="M480.277,-498.203C476.578,-549.765 467.935,-670.23 464.239,-721.743"/>
</g>
<!-- n9 -->
<g id="node13" class="node"><title>n9</title>
<ellipse fill="none" stroke="black" cx="793.147" cy="-524.081" rx="19.4965" ry="19.4965"/>
<text text-anchor="middle" x="793.147" y="-520.381" font-family="Times,serif" font-size="14.00">n9</text>
</g>
<!-- n16&#45;&#45;n9 -->
<g id="edge71" class="edge"><title>n16&#45;&#45;n9</title>
<path fill="none" stroke="black" d="M505.905,-477.93C565.386,-487.487 719.198,-512.2 773.671,-520.952"/>
</g>
<!-- n8 -->
<g id="node14" class="node"><title>n8</title>
<ellipse fill="none" stroke="black" cx="634.801" cy="-708.879" rx="19.4965" ry="19.4965"/>
<text text-anchor="middle" x="634.801" y="-705.179" font-family="Times,serif" font-size="14.00">n8</text>
</g>
<!-- n16&#45;&#45;n8 -->
<g id="edge70" class="edge"><title>n16&#45;&#45;n8</title>
<path fill="none" stroke="black" d="M495.299,-494.516C525.14,-540.37 596.965,-650.738 624.14,-692.498"/>
</g>
<!-- n16&#45;&#45;n7 -->
<g id="edge69" class="edge"><title>n16&#45;&#45;n7</title>
<path fill="none" stroke="black" d="M495.292,-494.51C511.361,-519.208 538.091,-560.293 552.888,-583.036"/>
</g>
<!-- n16&#45;&#45;n6 -->
<g id="edge68" class="edge"><title>n16&#45;&#45;n6</title>
<path fill="none" stroke="black" d="M506.231,-473.193C518.888,-472.724 534.179,-472.157 546.093,-471.716"/>
</g>
<!-- n16&#45;&#45;n5 -->
<g id="edge67" class="edge"><title>n16&#45;&#45;n5</title>
<path fill="none" stroke="black" d="M460.042,-484.378C448.652,-489.712 434.911,-496.147 424.143,-501.19"/>
</g>
<!-- n16&#45;&#45;n4 -->
<g id="edge66" class="edge"><title>n16&#45;&#45;n4</title>
<path fill="none" stroke="black" d="M457.707,-475.674C418.018,-478.261 340.057,-483.343 303.558,-485.722"/>
</g>
<!-- n16&#45;&#45;n3 -->
<g id="edge65" class="edge"><title>n16&#45;&#45;n3</title>
<path fill="none" stroke="black" d="M458.19,-470.715C406.697,-463.416 285.833,-446.285 238.425,-439.566"/>
</g>
<!-- n16&#45;&#45;n2 -->
<g id="edge64" class="edge"><title>n16&#45;&#45;n2</title>
<path fill="none" stroke="black" d="M464.867,-456.761C427.108,-418.584 337.365,-327.847 302.785,-292.885"/>
</g>
<!-- n15&#45;&#45;n14 -->
<g id="edge63" class="edge"><title>n15&#45;&#45;n14</title>
<path fill="none" stroke="black" d="M368.056,-540.739C398.156,-487.371 476.746,-348.03 506.865,-294.629"/>
</g>
<!-- n15&#45;&#45;n12 -->
<g id="edge62" class="edge"><title>n15&#45;&#45;n12</title>
<path fill="none" stroke="black" d="M359.897,-538.213C370.499,-472.122 400.272,-286.524 410.955,-219.925"/>
</g>
<!-- n15&#45;&#45;n11 -->
<g id="edge61" class="edge"><title>n15&#45;&#45;n11</title>
<path fill="none" stroke="black" d="M373.484,-545.009C412.033,-507.449 504.266,-417.582 542.774,-380.062"/>
</g>
<!-- n15&#45;&#45;n10 -->
<g id="edge60" class="edge"><title>n15&#45;&#45;n10</title>
<path fill="none" stroke="black" d="M368.296,-583.048C388.825,-618.51 430.014,-689.662 450.447,-724.959"/>
</g>
<!-- n15&#45;&#45;n8 -->
<g id="edge59" class="edge"><title>n15&#45;&#45;n8</title>
<path fill="none" stroke="black" d="M377.495,-573.243C430.777,-601.33 568.559,-673.96 617.354,-699.682"/>
</g>
<!-- n15&#45;&#45;n7 -->
<g id="edge58" class="edge"><title>n15&#45;&#45;n7</title>
<path fill="none" stroke="black" d="M379.888,-566.259C421.4,-573.759 506.243,-589.089 544.319,-595.969"/>
</g>
<!-- n15&#45;&#45;n6 -->
<g id="edge57" class="edge"><title>n15&#45;&#45;n6</title>
<path fill="none" stroke="black" d="M378.526,-552.223C420.361,-534.072 509.485,-495.403 547.722,-478.812"/>
</g>
<!-- n15&#45;&#45;n5 -->
<g id="edge56" class="edge"><title>n15&#45;&#45;n5</title>
<path fill="none" stroke="black" d="M372.73,-544.543C379.09,-537.887 386.266,-530.377 392.326,-524.035"/>
</g>
<!-- n15&#45;&#45;n4 -->
<g id="edge55" class="edge"><title>n15&#45;&#45;n4</title>
<path fill="none" stroke="black" d="M339.329,-544.575C326.656,-531.429 309.467,-513.599 297.592,-501.282"/>
</g>
<!-- n15&#45;&#45;n3 -->
<g id="edge54" class="edge"><title>n15&#45;&#45;n3</title>
<path fill="none" stroke="black" d="M338.147,-545.595C310.684,-520.547 258.75,-473.179 233.446,-450.101"/>
</g>
<!-- n15&#45;&#45;n2 -->
<g id="edge53" class="edge"><title>n15&#45;&#45;n2</title>
<path fill="none" stroke="black" d="M350.473,-538.305C337.44,-483.412 305.348,-348.233 293.424,-298.01"/>
</g>
<!-- n14&#45;&#45;n12 -->
<g id="edge52" class="edge"><title>n14&#45;&#45;n12</title>
<path fill="none" stroke="black" d="M499.285,-258.778C480.689,-244.901 452.877,-224.147 434.309,-210.291"/>
</g>
<!-- n14&#45;&#45;n11 -->
<g id="edge51" class="edge"><title>n14&#45;&#45;n11</title>
<path fill="none" stroke="black" d="M529.053,-295.57C535.451,-309.486 543.665,-327.351 550.04,-341.218"/>
</g>
<!-- n14&#45;&#45;n7 -->
<g id="edge50" class="edge"><title>n14&#45;&#45;n7</title>
<path fill="none" stroke="black" d="M522.138,-297.355C530.629,-359.272 553.166,-523.615 560.909,-580.077"/>
</g>
<!-- n14&#45;&#45;n6 -->
<g id="edge49" class="edge"><title>n14&#45;&#45;n6</title>
<path fill="none" stroke="black" d="M524.415,-296.822C533.807,-336.388 552.62,-415.646 561.247,-451.988"/>
</g>
<!-- n14&#45;&#45;n5 -->
<g id="edge48" class="edge"><title>n14&#45;&#45;n5</title>
<path fill="none" stroke="black" d="M508.442,-295.183C486.301,-341.566 434.9,-449.25 414.565,-491.849"/>
</g>
<!-- n14&#45;&#45;n4 -->
<g id="edge47" class="edge"><title>n14&#45;&#45;n4</title>
<path fill="none" stroke="black" d="M500.799,-289.787C455.87,-330.627 339.689,-436.234 298.543,-473.635"/>
</g>
<!-- n14&#45;&#45;n3 -->
<g id="edge46" class="edge"><title>n14&#45;&#45;n3</title>
<path fill="none" stroke="black" d="M497.275,-285.13C440.446,-316.086 287.478,-399.41 236.016,-427.443"/>
</g>
<!-- n14&#45;&#45;n2 -->
<g id="edge45" class="edge"><title>n14&#45;&#45;n2</title>
<path fill="none" stroke="black" d="M494.673,-273.949C448.888,-275.031 350.369,-277.36 308.422,-278.351"/>
</g>
<!-- n13&#45;&#45;n12 -->
<g id="edge44" class="edge"><title>n13&#45;&#45;n12</title>
<path fill="none" stroke="black" d="M250.507,-40.8247C285.413,-73.7358 362.486,-146.403 397.234,-179.165"/>
</g>
<!-- n13&#45;&#45;n2 -->
<g id="edge43" class="edge"><title>n13&#45;&#45;n2</title>
<path fill="none" stroke="black" d="M237.895,-47.5589C248.918,-97.5709 274.511,-213.679 284.635,-259.612"/>
</g>
<!-- n13&#45;&#45;n1 -->
<g id="edge42" class="edge"><title>n13&#45;&#45;n1</title>
<path fill="none" stroke="black" d="M219.707,-44.3623C197.022,-79.7943 150.657,-152.211 129.85,-184.711"/>
</g>
<!-- n13&#45;&#45;n0 -->
<g id="edge41" class="edge"><title>n13&#45;&#45;n0</title>
<path fill="none" stroke="black" d="M209.45,-31.3592C178.632,-41.0449 124.854,-57.9471 96.3379,-66.9093"/>
</g>
<!-- n12&#45;&#45;n11 -->
<g id="edge40" class="edge"><title>n12&#45;&#45;n11</title>
<path fill="none" stroke="black" d="M430.658,-213.99C458.606,-246.19 516.385,-312.76 544.32,-344.945"/>
</g>
<!-- n12&#45;&#45;n5 -->
<g id="edge39" class="edge"><title>n12&#45;&#45;n5</title>
<path fill="none" stroke="black" d="M414.159,-219.867C412.483,-279.876 408.149,-435.052 406.614,-490.008"/>
</g>
<!-- n12&#45;&#45;n4 -->
<g id="edge38" class="edge"><title>n12&#45;&#45;n4</title>
<path fill="none" stroke="black" d="M404.77,-218.127C379.667,-273.939 314.656,-418.475 291.868,-469.141"/>
</g>
<!-- n12&#45;&#45;n3 -->
<g id="edge37" class="edge"><title>n12&#45;&#45;n3</title>
<path fill="none" stroke="black" d="M399.454,-214.67C361.826,-260.949 265.692,-379.185 231.313,-421.468"/>
</g>
<!-- n12&#45;&#45;n2 -->
<g id="edge36" class="edge"><title>n12&#45;&#45;n2</title>
<path fill="none" stroke="black" d="M394.594,-209.101C369.835,-225.426 328.392,-252.752 305.436,-267.888"/>
</g>
<!-- n12&#45;&#45;n1 -->
<g id="edge35" class="edge"><title>n12&#45;&#45;n1</title>
<path fill="none" stroke="black" d="M390.65,-196.197C333.585,-197.236 191.411,-199.825 139.076,-200.778"/>
</g>
<!-- n11&#45;&#45;n10 -->
<g id="edge34" class="edge"><title>n11&#45;&#45;n10</title>
<path fill="none" stroke="black" d="M554.166,-386.516C536.74,-454.828 486.003,-653.719 468.518,-722.261"/>
</g>
<!-- n11&#45;&#45;n6 -->
<g id="edge33" class="edge"><title>n11&#45;&#45;n6</title>
<path fill="none" stroke="black" d="M561.389,-387.355C562.394,-406.604 563.783,-433.203 564.723,-451.194"/>
</g>
<!-- n11&#45;&#45;n5 -->
<g id="edge32" class="edge"><title>n11&#45;&#45;n5</title>
<path fill="none" stroke="black" d="M542.453,-379.961C511.629,-409.273 448.629,-469.182 420.355,-496.068"/>
</g>
<!-- n11&#45;&#45;n4 -->
<g id="edge31" class="edge"><title>n11&#45;&#45;n4</title>
<path fill="none" stroke="black" d="M537.982,-373.081C484.712,-396.96 350.227,-457.245 301.667,-479.013"/>
</g>
<!-- n11&#45;&#45;n3 -->
<g id="edge30" class="edge"><title>n11&#45;&#45;n3</title>
<path fill="none" stroke="black" d="M536.399,-368.275C472.308,-382.104 296.598,-420.017 238.091,-432.641"/>
</g>
<!-- n11&#45;&#45;n2 -->
<g id="edge29" class="edge"><title>n11&#45;&#45;n2</title>
<path fill="none" stroke="black" d="M536.998,-355.964C484.212,-339.552 355.708,-299.596 307.525,-284.614"/>
</g>
<!-- n10&#45;&#45;n8 -->
<g id="edge28" class="edge"><title>n10&#45;&#45;n8</title>
<path fill="none" stroke="black" d="M486.107,-740.745C520.575,-733.359 584.028,-719.76 615.729,-712.966"/>
</g>
<!-- n10&#45;&#45;n7 -->
<g id="edge27" class="edge"><title>n10&#45;&#45;n7</title>
<path fill="none" stroke="black" d="M476.351,-725.759C496.568,-696.479 533.785,-642.577 552.379,-615.647"/>
</g>
<!-- n10&#45;&#45;n6 -->
<g id="edge26" class="edge"><title>n10&#45;&#45;n6</title>
<path fill="none" stroke="black" d="M471.137,-722.844C491.202,-669.437 540.682,-537.729 558.889,-489.266"/>
</g>
<!-- n10&#45;&#45;n5 -->
<g id="edge25" class="edge"><title>n10&#45;&#45;n5</title>
<path fill="none" stroke="black" d="M456.894,-722.296C445.711,-675.515 420.866,-571.578 410.619,-528.71"/>
</g>
<!-- n9&#45;&#45;n8 -->
<g id="edge24" class="edge"><title>n9&#45;&#45;n8</title>
<path fill="none" stroke="black" d="M780.456,-538.891C750.807,-573.493 677.26,-659.327 647.552,-693.998"/>
</g>
<!-- n9&#45;&#45;n7 -->
<g id="edge23" class="edge"><title>n9&#45;&#45;n7</title>
<path fill="none" stroke="black" d="M774.359,-530.248C731.201,-544.416 625.387,-579.152 582.29,-593.299"/>
</g>
<!-- n9&#45;&#45;n6 -->
<g id="edge22" class="edge"><title>n9&#45;&#45;n6</title>
<path fill="none" stroke="black" d="M774.151,-519.646C731.348,-509.651 627.761,-485.465 584.858,-475.447"/>
</g>
<!-- n8&#45;&#45;n7 -->
<g id="edge21" class="edge"><title>n8&#45;&#45;n7</title>
<path fill="none" stroke="black" d="M623.981,-692.258C610.514,-671.57 587.658,-636.458 574.252,-615.864"/>
</g>
<!-- n8&#45;&#45;n6 -->
<g id="edge20" class="edge"><title>n8&#45;&#45;n6</title>
<path fill="none" stroke="black" d="M629.267,-689.813C616.307,-645.16 584.111,-534.229 571.221,-489.813"/>
</g>
<!-- n8&#45;&#45;n5 -->
<g id="edge19" class="edge"><title>n8&#45;&#45;n5</title>
<path fill="none" stroke="black" d="M619.793,-695.807C578.248,-659.623 462.084,-558.448 420.831,-522.518"/>
</g>
<!-- n7&#45;&#45;n6 -->
<g id="edge18" class="edge"><title>n7&#45;&#45;n6</title>
<path fill="none" stroke="black" d="M563.897,-579.936C564.309,-555.791 565.007,-514.91 565.421,-490.681"/>
</g>
<!-- n7&#45;&#45;n5 -->
<g id="edge17" class="edge"><title>n7&#45;&#45;n5</title>
<path fill="none" stroke="black" d="M546.41,-589.666C516.113,-572.395 453.48,-536.688 423.199,-519.425"/>
</g>
<!-- n7&#45;&#45;n4 -->
<g id="edge16" class="edge"><title>n7&#45;&#45;n4</title>
<path fill="none" stroke="black" d="M545.211,-592.069C494.525,-571.696 353.02,-514.818 302.253,-494.412"/>
</g>
<!-- n6&#45;&#45;n5 -->
<g id="edge15" class="edge"><title>n6&#45;&#45;n5</title>
<path fill="none" stroke="black" d="M546.494,-475.652C515.801,-483.084 456.132,-497.533 425.396,-504.976"/>
</g>
<!-- n6&#45;&#45;n4 -->
<g id="edge14" class="edge"><title>n6&#45;&#45;n4</title>
<path fill="none" stroke="black" d="M545.932,-472.114C494.168,-475.055 355.373,-482.942 303.634,-485.883"/>
</g>
<!-- n6&#45;&#45;n3 -->
<g id="edge13" class="edge"><title>n6&#45;&#45;n3</title>
<path fill="none" stroke="black" d="M546.112,-469.051C485.053,-463.032 299.047,-444.696 238.283,-438.707"/>
</g>
<!-- n6&#45;&#45;n2 -->
<g id="edge12" class="edge"><title>n6&#45;&#45;n2</title>
<path fill="none" stroke="black" d="M549.673,-459.824C500.735,-425.859 353.992,-324.013 304.995,-290.006"/>
</g>
<!-- n5&#45;&#45;n4 -->
<g id="edge11" class="edge"><title>n5&#45;&#45;n4</title>
<path fill="none" stroke="black" d="M386.697,-506.068C363.809,-501.827 325.957,-494.814 303.109,-490.58"/>
</g>
<!-- n5&#45;&#45;n3 -->
<g id="edge10" class="edge"><title>n5&#45;&#45;n3</title>
<path fill="none" stroke="black" d="M387.773,-502.538C351.983,-488.608 273.069,-457.893 237.219,-443.94"/>
</g>
<!-- n5&#45;&#45;n2 -->
<g id="edge9" class="edge"><title>n5&#45;&#45;n2</title>
<path fill="none" stroke="black" d="M397.063,-491.926C375.194,-448.851 319.473,-339.098 297.739,-296.288"/>
</g>
<!-- n4&#45;&#45;n3 -->
<g id="edge8" class="edge"><title>n4&#45;&#45;n3</title>
<path fill="none" stroke="black" d="M268.102,-474.852C257.886,-466.957 244.625,-456.708 234.438,-448.836"/>
</g>
<!-- n4&#45;&#45;n2 -->
<g id="edge7" class="edge"><title>n4&#45;&#45;n2</title>
<path fill="none" stroke="black" d="M284.305,-467.421C285.265,-427.741 287.429,-338.262 288.391,-298.499"/>
</g>
<!-- n4&#45;&#45;n1 -->
<g id="edge6" class="edge"><title>n4&#45;&#45;n1</title>
<path fill="none" stroke="black" d="M274.034,-469.981C244.776,-419.137 158.269,-268.803 129.079,-218.075"/>
</g>
<!-- n3&#45;&#45;n2 -->
<g id="edge5" class="edge"><title>n3&#45;&#45;n2</title>
<path fill="none" stroke="black" d="M226.885,-418.669C240.39,-388.196 267.487,-327.055 280.929,-296.724"/>
</g>
<!-- n3&#45;&#45;n1 -->
<g id="edge4" class="edge"><title>n3&#45;&#45;n1</title>
<path fill="none" stroke="black" d="M211.209,-418.691C192.684,-374.827 145.554,-263.228 127.003,-219.299"/>
</g>
<!-- n2&#45;&#45;n1 -->
<g id="edge3" class="edge"><title>n2&#45;&#45;n1</title>
<path fill="none" stroke="black" d="M271.044,-270.647C238.484,-255.729 169.743,-224.234 137.171,-209.311"/>
</g>
<!-- n2&#45;&#45;n0 -->
<g id="edge2" class="edge"><title>n2&#45;&#45;n0</title>
<path fill="none" stroke="black" d="M274.659,-264.982C236.122,-227.467 129.937,-124.1 91.4721,-86.6558"/>
</g>
<!-- n1&#45;&#45;n0 -->
<g id="edge1" class="edge"><title>n1&#45;&#45;n0</title>
<path fill="none" stroke="black" d="M113.224,-182.489C105.26,-158.173 91.4091,-115.883 83.4412,-91.5563"/>
</g>
</g>
</svg>
