<?xml version="1.0" standalone="yes"?>
<!-- SVG graphic -->
<svg xmlns='http://www.w3.org/2000/svg' xmlns:xlink='http://www.w3.org/1999/xlink'
width="125px" height="125px" preserveAspectRatio="xMinYMin meet" viewBox="0 0 125 125" version="1.1">
<rect x="5" y="0" width="2.5" height="2.5" fill="blue"/>
<rect x="10" y="0" width="2.5" height="2.5" fill="blue"/>
<rect x="15" y="0" width="2.5" height="2.5" fill="blue"/>
<rect x="20" y="0" width="2.5" height="2.5" fill="blue"/>
<rect x="25" y="0" width="2.5" height="2.5" fill="blue"/>
<rect x="30" y="0" width="2.5" height="2.5" fill="blue"/>
<rect x="35" y="0" width="2.5" height="2.5" fill="blue"/>
<rect x="40" y="0" width="2.5" height="2.5" fill="blue"/>
<rect x="45" y="0" width="2.5" height="2.5" fill="blue"/>
<rect x="50" y="0" width="2.5" height="2.5" fill="blue"/>
<rect x="55" y="0" width="2.5" height="2.5" fill="blue"/>
<rect x="60" y="0" width="2.5" height="2.5" fill="blue"/>
<rect x="65" y="0" width="2.5" height="2.5" fill="blue"/>
<rect x="70" y="0" width="2.5" height="2.5" fill="blue"/>
<rect x="75" y="0" width="2.5" height="2.5" fill="blue"/>
<rect x="80" y="0" width="2.5" height="2.5" fill="blue"/>
<rect x="85" y="0" width="2.5" height="2.5" fill="blue"/>
<rect x="90" y="0" width="2.5" height="2.5" fill="blue"/>
<rect x="95" y="0" width="2.5" height="2.5" fill="blue"/>
<rect x="100" y="0" width="2.5" height="2.5" fill="blue"/>
<rect x="105" y="0" width="2.5" height="2.5" fill="blue"/>
<rect x="10" y="5" width="2.5" height="2.5" fill="blue"/>
<rect x="15" y="5" width="2.5" height="2.5" fill="blue"/>
<rect x="20" y="5" width="2.5" height="2.5" fill="blue"/>
<rect x="25" y="5" width="2.5" height="2.5" fill="blue"/>
<rect x="30" y="5" width="2.5" height="2.5" fill="blue"/>
<rect x="35" y="5" width="2.5" height="2.5" fill="blue"/>
<rect x="40" y="5" width="2.5" height="2.5" fill="blue"/>
<rect x="45" y="5" width="2.5" height="2.5" fill="blue"/>
<rect x="50" y="5" width="2.5" height="2.5" fill="blue"/>
<rect x="55" y="5" width="2.5" height="2.5" fill="blue"/>
<rect x="60" y="5" width="2.5" height="2.5" fill="blue"/>
<rect x="65" y="5" width="2.5" height="2.5" fill="blue"/>
<rect x="70" y="5" width="2.5" height="2.5" fill="blue"/>
<rect x="75" y="5" width="2.5" height="2.5" fill="blue"/>
<rect x="80" y="5" width="2.5" height="2.5" fill="blue"/>
<rect x="85" y="5" width="2.5" height="2.5" fill="blue"/>
<rect x="90" y="5" width="2.5" height="2.5" fill="blue"/>
<rect x="95" y="5" width="2.5" height="2.5" fill="blue"/>
<rect x="100" y="5" width="2.5" height="2.5" fill="blue"/>
<rect x="105" y="5" width="2.5" height="2.5" fill="blue"/>
<rect x="15" y="10" width="2.5" height="2.5" fill="blue"/>
<rect x="20" y="10" width="2.5" height="2.5" fill="blue"/>
<rect x="25" y="10" width="2.5" height="2.5" fill="blue"/>
<rect x="30" y="10" width="2.5" height="2.5" fill="blue"/>
<rect x="35" y="10" width="2.5" height="2.5" fill="blue"/>
<rect x="40" y="10" width="2.5" height="2.5" fill="blue"/>
<rect x="45" y="10" width="2.5" height="2.5" fill="blue"/>
<rect x="50" y="10" width="2.5" height="2.5" fill="blue"/>
<rect x="55" y="10" width="2.5" height="2.5" fill="blue"/>
<rect x="60" y="10" width="2.5" height="2.5" fill="blue"/>
<rect x="65" y="10" width="2.5" height="2.5" fill="blue"/>
<rect x="70" y="10" width="2.5" height="2.5" fill="blue"/>
<rect x="75" y="10" width="2.5" height="2.5" fill="blue"/>
<rect x="80" y="10" width="2.5" height="2.5" fill="blue"/>
<rect x="85" y="10" width="2.5" height="2.5" fill="blue"/>
<rect x="90" y="10" width="2.5" height="2.5" fill="blue"/>
<rect x="95" y="10" width="2.5" height="2.5" fill="blue"/>
<rect x="100" y="10" width="2.5" height="2.5" fill="blue"/>
<rect x="105" y="10" width="2.5" height="2.5" fill="blue"/>
<rect x="20" y="15" width="2.5" height="2.5" fill="blue"/>
<rect x="25" y="15" width="2.5" height="2.5" fill="blue"/>
<rect x="30" y="15" width="2.5" height="2.5" fill="blue"/>
<rect x="35" y="15" width="2.5" height="2.5" fill="blue"/>
<rect x="40" y="15" width="2.5" height="2.5" fill="blue"/>
<rect x="45" y="15" width="2.5" height="2.5" fill="blue"/>
<rect x="50" y="15" width="2.5" height="2.5" fill="blue"/>
<rect x="55" y="15" width="2.5" height="2.5" fill="blue"/>
<rect x="60" y="15" width="2.5" height="2.5" fill="blue"/>
<rect x="65" y="15" width="2.5" height="2.5" fill="blue"/>
<rect x="70" y="15" width="2.5" height="2.5" fill="blue"/>
<rect x="75" y="15" width="2.5" height="2.5" fill="blue"/>
<rect x="80" y="15" width="2.5" height="2.5" fill="blue"/>
<rect x="85" y="15" width="2.5" height="2.5" fill="blue"/>
<rect x="90" y="15" width="2.5" height="2.5" fill="blue"/>
<rect x="95" y="15" width="2.5" height="2.5" fill="blue"/>
<rect x="100" y="15" width="2.5" height="2.5" fill="blue"/>
<rect x="105" y="15" width="2.5" height="2.5" fill="blue"/>
<rect x="25" y="20" width="2.5" height="2.5" fill="blue"/>
<rect x="30" y="20" width="2.5" height="2.5" fill="blue"/>
<rect x="35" y="20" width="2.5" height="2.5" fill="blue"/>
<rect x="40" y="20" width="2.5" height="2.5" fill="blue"/>
<rect x="45" y="20" width="2.5" height="2.5" fill="blue"/>
<rect x="50" y="20" width="2.5" height="2.5" fill="blue"/>
<rect x="55" y="20" width="2.5" height="2.5" fill="blue"/>
<rect x="60" y="20" width="2.5" height="2.5" fill="blue"/>
<rect x="65" y="20" width="2.5" height="2.5" fill="blue"/>
<rect x="70" y="20" width="2.5" height="2.5" fill="blue"/>
<rect x="75" y="20" width="2.5" height="2.5" fill="blue"/>
<rect x="80" y="20" width="2.5" height="2.5" fill="blue"/>
<rect x="85" y="20" width="2.5" height="2.5" fill="blue"/>
<rect x="90" y="20" width="2.5" height="2.5" fill="blue"/>
<rect x="95" y="20" width="2.5" height="2.5" fill="blue"/>
<rect x="100" y="20" width="2.5" height="2.5" fill="blue"/>
<rect x="105" y="20" width="2.5" height="2.5" fill="blue"/>
<rect x="30" y="25" width="2.5" height="2.5" fill="blue"/>
<rect x="35" y="25" width="2.5" height="2.5" fill="blue"/>
<rect x="40" y="25" width="2.5" height="2.5" fill="blue"/>
<rect x="45" y="25" width="2.5" height="2.5" fill="blue"/>
<rect x="50" y="25" width="2.5" height="2.5" fill="blue"/>
<rect x="55" y="25" width="2.5" height="2.5" fill="blue"/>
<rect x="60" y="25" width="2.5" height="2.5" fill="blue"/>
<rect x="65" y="25" width="2.5" height="2.5" fill="blue"/>
<rect x="70" y="25" width="2.5" height="2.5" fill="blue"/>
<rect x="75" y="25" width="2.5" height="2.5" fill="blue"/>
<rect x="80" y="25" width="2.5" height="2.5" fill="blue"/>
<rect x="85" y="25" width="2.5" height="2.5" fill="blue"/>
<rect x="90" y="25" width="2.5" height="2.5" fill="blue"/>
<rect x="95" y="25" width="2.5" height="2.5" fill="blue"/>
<rect x="100" y="25" width="2.5" height="2.5" fill="blue"/>
<rect x="105" y="25" width="2.5" height="2.5" fill="blue"/>
<rect x="35" y="30" width="2.5" height="2.5" fill="blue"/>
<rect x="40" y="30" width="2.5" height="2.5" fill="blue"/>
<rect x="45" y="30" width="2.5" height="2.5" fill="blue"/>
<rect x="50" y="30" width="2.5" height="2.5" fill="blue"/>
<rect x="55" y="30" width="2.5" height="2.5" fill="blue"/>
<rect x="60" y="30" width="2.5" height="2.5" fill="blue"/>
<rect x="65" y="30" width="2.5" height="2.5" fill="blue"/>
<rect x="70" y="30" width="2.5" height="2.5" fill="blue"/>
<rect x="75" y="30" width="2.5" height="2.5" fill="blue"/>
<rect x="80" y="30" width="2.5" height="2.5" fill="blue"/>
<rect x="85" y="30" width="2.5" height="2.5" fill="blue"/>
<rect x="90" y="30" width="2.5" height="2.5" fill="blue"/>
<rect x="95" y="30" width="2.5" height="2.5" fill="blue"/>
<rect x="100" y="30" width="2.5" height="2.5" fill="blue"/>
<rect x="105" y="30" width="2.5" height="2.5" fill="blue"/>
<rect x="40" y="35" width="2.5" height="2.5" fill="blue"/>
<rect x="45" y="35" width="2.5" height="2.5" fill="blue"/>
<rect x="50" y="35" width="2.5" height="2.5" fill="blue"/>
<rect x="55" y="35" width="2.5" height="2.5" fill="blue"/>
<rect x="60" y="35" width="2.5" height="2.5" fill="blue"/>
<rect x="65" y="35" width="2.5" height="2.5" fill="blue"/>
<rect x="70" y="35" width="2.5" height="2.5" fill="blue"/>
<rect x="75" y="35" width="2.5" height="2.5" fill="blue"/>
<rect x="80" y="35" width="2.5" height="2.5" fill="blue"/>
<rect x="85" y="35" width="2.5" height="2.5" fill="blue"/>
<rect x="90" y="35" width="2.5" height="2.5" fill="blue"/>
<rect x="95" y="35" width="2.5" height="2.5" fill="blue"/>
<rect x="100" y="35" width="2.5" height="2.5" fill="blue"/>
<rect x="105" y="35" width="2.5" height="2.5" fill="blue"/>
<rect x="45" y="40" width="2.5" height="2.5" fill="blue"/>
<rect x="50" y="40" width="2.5" height="2.5" fill="blue"/>
<rect x="55" y="40" width="2.5" height="2.5" fill="blue"/>
<rect x="60" y="40" width="2.5" height="2.5" fill="blue"/>
<rect x="65" y="40" width="2.5" height="2.5" fill="blue"/>
<rect x="70" y="40" width="2.5" height="2.5" fill="blue"/>
<rect x="75" y="40" width="2.5" height="2.5" fill="blue"/>
<rect x="80" y="40" width="2.5" height="2.5" fill="blue"/>
<rect x="85" y="40" width="2.5" height="2.5" fill="blue"/>
<rect x="90" y="40" width="2.5" height="2.5" fill="blue"/>
<rect x="95" y="40" width="2.5" height="2.5" fill="blue"/>
<rect x="100" y="40" width="2.5" height="2.5" fill="blue"/>
<rect x="105" y="40" width="2.5" height="2.5" fill="blue"/>
<rect x="50" y="45" width="2.5" height="2.5" fill="blue"/>
<rect x="55" y="45" width="2.5" height="2.5" fill="blue"/>
<rect x="60" y="45" width="2.5" height="2.5" fill="blue"/>
<rect x="65" y="45" width="2.5" height="2.5" fill="blue"/>
<rect x="70" y="45" width="2.5" height="2.5" fill="blue"/>
<rect x="75" y="45" width="2.5" height="2.5" fill="blue"/>
<rect x="80" y="45" width="2.5" height="2.5" fill="blue"/>
<rect x="85" y="45" width="2.5" height="2.5" fill="blue"/>
<rect x="90" y="45" width="2.5" height="2.5" fill="blue"/>
<rect x="95" y="45" width="2.5" height="2.5" fill="blue"/>
<rect x="100" y="45" width="2.5" height="2.5" fill="blue"/>
<rect x="105" y="45" width="2.5" height="2.5" fill="blue"/>
<rect x="55" y="50" width="2.5" height="2.5" fill="blue"/>
<rect x="60" y="50" width="2.5" height="2.5" fill="blue"/>
<rect x="65" y="50" width="2.5" height="2.5" fill="blue"/>
<rect x="70" y="50" width="2.5" height="2.5" fill="blue"/>
<rect x="75" y="50" width="2.5" height="2.5" fill="blue"/>
<rect x="80" y="50" width="2.5" height="2.5" fill="blue"/>
<rect x="85" y="50" width="2.5" height="2.5" fill="blue"/>
<rect x="90" y="50" width="2.5" height="2.5" fill="blue"/>
<rect x="95" y="50" width="2.5" height="2.5" fill="blue"/>
<rect x="100" y="50" width="2.5" height="2.5" fill="blue"/>
<rect x="105" y="50" width="2.5" height="2.5" fill="blue"/>
<rect x="60" y="55" width="2.5" height="2.5" fill="blue"/>
<rect x="65" y="55" width="2.5" height="2.5" fill="blue"/>
<rect x="70" y="55" width="2.5" height="2.5" fill="blue"/>
<rect x="75" y="55" width="2.5" height="2.5" fill="blue"/>
<rect x="80" y="55" width="2.5" height="2.5" fill="blue"/>
<rect x="85" y="55" width="2.5" height="2.5" fill="blue"/>
<rect x="90" y="55" width="2.5" height="2.5" fill="blue"/>
<rect x="95" y="55" width="2.5" height="2.5" fill="blue"/>
<rect x="100" y="55" width="2.5" height="2.5" fill="blue"/>
<rect x="105" y="55" width="2.5" height="2.5" fill="blue"/>
<rect x="65" y="60" width="2.5" height="2.5" fill="blue"/>
<rect x="70" y="60" width="2.5" height="2.5" fill="blue"/>
<rect x="75" y="60" width="2.5" height="2.5" fill="blue"/>
<rect x="80" y="60" width="2.5" height="2.5" fill="blue"/>
<rect x="85" y="60" width="2.5" height="2.5" fill="blue"/>
<rect x="90" y="60" width="2.5" height="2.5" fill="blue"/>
<rect x="95" y="60" width="2.5" height="2.5" fill="blue"/>
<rect x="100" y="60" width="2.5" height="2.5" fill="blue"/>
<rect x="105" y="60" width="2.5" height="2.5" fill="blue"/>
<rect x="70" y="65" width="2.5" height="2.5" fill="blue"/>
<rect x="75" y="65" width="2.5" height="2.5" fill="blue"/>
<rect x="80" y="65" width="2.5" height="2.5" fill="blue"/>
<rect x="85" y="65" width="2.5" height="2.5" fill="blue"/>
<rect x="90" y="65" width="2.5" height="2.5" fill="blue"/>
<rect x="95" y="65" width="2.5" height="2.5" fill="blue"/>
<rect x="100" y="65" width="2.5" height="2.5" fill="blue"/>
<rect x="105" y="65" width="2.5" height="2.5" fill="blue"/>
<rect x="75" y="70" width="2.5" height="2.5" fill="blue"/>
<rect x="80" y="70" width="2.5" height="2.5" fill="blue"/>
<rect x="85" y="70" width="2.5" height="2.5" fill="blue"/>
<rect x="90" y="70" width="2.5" height="2.5" fill="blue"/>
<rect x="95" y="70" width="2.5" height="2.5" fill="blue"/>
<rect x="100" y="70" width="2.5" height="2.5" fill="blue"/>
<rect x="105" y="70" width="2.5" height="2.5" fill="blue"/>
<rect x="80" y="75" width="2.5" height="2.5" fill="blue"/>
<rect x="85" y="75" width="2.5" height="2.5" fill="blue"/>
<rect x="90" y="75" width="2.5" height="2.5" fill="blue"/>
<rect x="95" y="75" width="2.5" height="2.5" fill="blue"/>
<rect x="100" y="75" width="2.5" height="2.5" fill="blue"/>
<rect x="105" y="75" width="2.5" height="2.5" fill="blue"/>
<rect x="85" y="80" width="2.5" height="2.5" fill="blue"/>
<rect x="90" y="80" width="2.5" height="2.5" fill="blue"/>
<rect x="95" y="80" width="2.5" height="2.5" fill="blue"/>
<rect x="100" y="80" width="2.5" height="2.5" fill="blue"/>
<rect x="105" y="80" width="2.5" height="2.5" fill="blue"/>
<rect x="90" y="85" width="2.5" height="2.5" fill="blue"/>
<rect x="95" y="85" width="2.5" height="2.5" fill="blue"/>
<rect x="100" y="85" width="2.5" height="2.5" fill="blue"/>
<rect x="105" y="85" width="2.5" height="2.5" fill="blue"/>
<rect x="95" y="90" width="2.5" height="2.5" fill="blue"/>
<rect x="100" y="90" width="2.5" height="2.5" fill="blue"/>
<rect x="105" y="90" width="2.5" height="2.5" fill="blue"/>
<rect x="100" y="95" width="2.5" height="2.5" fill="blue"/>
<rect x="105" y="95" width="2.5" height="2.5" fill="blue"/>
<rect x="105" y="100" width="2.5" height="2.5" fill="blue"/>
<text x="115" y="5" font-size="5" fill="black">0</text>
<text x="115" y="105" font-size="5" fill="black">22</text>
<polyline points="115,10,115,100" stroke="black" stroke-width="1" fill="none"/>
<text x="5" y="115" font-size="5" fill="black">0</text>
<text x="105" y="115" font-size="5" fill="black">22</text>
<polyline points="10,115,100,115" stroke="black" stroke-width="1" fill="none"/>
</svg>